<svg width="246" height="220" viewBox="0 0 246 220" fill="none" xmlns="http://www.w3.org/2000/svg">
<path opacity="0.3" d="M184.545 177.53C218.251 143.824 218.251 89.1762 184.545 55.4705C150.839 21.7647 96.1915 21.7647 62.4857 55.4705C28.78 89.1762 28.78 143.824 62.4857 177.53C96.1915 211.236 150.839 211.236 184.545 177.53Z" fill="#FFDC30"/>
<path opacity="0.3" d="M193.865 137.154V166.247C190.678 170.68 187.076 174.836 183.197 178.715V137.154C183.197 136.877 177.933 132.582 173.915 129.396V127.456L178.764 126.209C180.703 125.655 182.782 125.932 184.721 126.625C185.552 127.04 186.384 127.317 187.353 127.594V131.335C191.371 134.799 193.865 136.877 193.865 137.154Z" fill="#FFC800"/>
<path d="M0.741211 5.81866L26.0939 65.2519L44.5195 52.5063L55.3256 68.1612L57.2651 41.8388L79.5699 28.262L0.741211 5.81866Z" fill="#FFC800"/>
<path d="M48.6761 49.7355L26.0942 65.2519L44.5199 52.5063L55.326 68.1612L57.2655 41.8388L21.5225 20.6423L48.6761 49.7355Z" fill="#FFB031"/>
<path d="M56.7114 48.3501L21.5225 20.6423L57.2655 41.8388L56.7114 48.3501Z" fill="#7A4C08"/>
<path d="M55.7415 75.5038C55.603 74.3955 55.3259 73.1486 55.0488 72.0403L56.8498 71.6247C57.1269 72.733 57.404 73.9799 57.6811 75.2267L55.7415 75.5038Z" fill="#0E0F11"/>
<path d="M34.8217 115.819C32.1894 115.68 29.6957 114.849 27.6176 113.463L28.5874 111.94C30.3884 113.186 32.6051 113.879 34.9602 114.018L34.8217 115.819ZM42.1642 114.433L41.333 112.771C43.134 111.801 45.0736 110.416 46.736 108.476L48.1214 109.723C46.3204 111.801 44.2423 113.325 42.1642 114.433ZM22.4917 107.783C21.5219 105.705 20.9678 103.489 20.9678 101.272C20.9678 101.134 20.9678 100.856 20.9678 100.718V100.302L22.7688 100.441V100.718C22.7688 100.856 22.7688 100.995 22.7688 101.134C22.7688 103.073 23.1844 105.013 24.1542 106.814L22.4917 107.783ZM92.0383 107.368V105.567C94.3935 105.567 96.7486 105.428 99.2423 105.29L99.3809 107.091C96.8872 107.229 94.3935 107.229 92.0383 107.368ZM84.8343 107.091L83.726 106.952C81.5093 106.814 79.5698 106.537 77.6302 106.121L77.9073 104.32C79.7083 104.597 81.6479 104.874 83.8645 105.013L84.9728 105.151L84.8343 107.091ZM106.585 106.259L106.308 104.458C108.663 104.181 111.018 103.766 113.373 103.35L113.65 105.151C111.295 105.567 108.94 105.982 106.585 106.259ZM70.4262 104.458C68.3481 103.766 66.27 102.796 64.6076 101.826C64.3305 101.688 64.0534 101.549 63.7763 101.272L64.7461 99.7481C65.0232 99.8867 65.3003 100.025 65.5774 100.164C67.2398 101.134 69.1794 101.965 71.1189 102.657L70.4262 104.458ZM52.4161 103.766L50.8922 102.935C52.0005 100.856 53.1088 98.7783 53.8015 96.5617L55.464 97.1159C54.6328 99.3325 53.663 101.549 52.4161 103.766ZM120.854 103.489L120.439 101.688C122.655 101.134 125.011 100.579 127.366 99.8867L127.92 101.549C125.426 102.38 123.071 102.935 120.854 103.489ZM134.847 99.6096L134.293 97.9471C136.509 97.2544 138.865 96.4232 141.081 95.5919L141.635 97.2544C139.419 98.0856 137.063 98.7783 134.847 99.6096ZM57.6806 97.1159C56.0182 95.869 54.2171 94.6222 52.2776 93.6524L51.7234 93.3753L52.5547 91.7128C52.8318 91.8514 52.9703 91.9899 53.2474 91.9899C55.3255 93.0982 57.1265 94.4836 58.7889 95.5919L57.6806 97.1159ZM25.401 94.4836L24.1542 93.2368C25.6781 91.7129 27.8947 90.466 30.804 89.6348L31.3582 91.2972C28.5874 92.1285 26.6479 93.0982 25.401 94.4836ZM45.0736 91.0202C42.9955 90.6045 40.9174 90.3275 38.8393 90.3275H38.1466V88.5265C40.6403 88.5265 43.134 88.665 45.4892 89.2192L45.0736 91.0202ZM57.4035 89.9118L55.6025 89.6348C56.0182 87.2796 56.2952 84.9244 56.2952 82.5693H58.0962C58.0962 85.063 57.8192 87.4181 57.4035 89.9118Z" fill="#0E0F11"/>
<path d="M148.562 94.6222L147.869 92.9597C148.977 92.5441 150.086 92.1284 151.194 91.7128L151.887 93.3753C150.778 93.7909 149.67 94.2065 148.562 94.6222Z" fill="#0E0F11"/>
<path d="M205.087 138.401C204.117 138.401 203.424 137.708 203.286 136.738C203.147 135.768 203.978 134.937 204.948 134.799C215.754 133.69 225.729 128.564 233.072 120.252C233.764 119.559 234.873 119.421 235.565 120.113C236.258 120.806 236.396 121.914 235.704 122.607C227.807 131.612 217.001 137.292 205.225 138.401C205.225 138.401 205.225 138.401 205.087 138.401Z" fill="#0E0F11"/>
<path d="M183.197 137.154L120.578 174.005L58.0967 137.154V137.015C58.0967 136.738 61.5602 133.829 66.8246 129.673L66.9632 129.534C84.2806 115.542 120.578 86.864 120.578 86.864C120.578 86.864 157.014 115.542 174.192 129.673C179.595 133.967 183.197 136.877 183.197 137.154Z" fill="#7A4C08"/>
<path d="M146.346 56.2469H78.8776C73.059 56.2469 68.3486 60.9572 68.3486 66.7759V168.879C68.3486 174.698 73.059 179.408 78.8776 179.408H163.525C169.344 179.408 174.054 174.698 174.054 168.879V83.8162L146.346 56.2469Z" fill="white"/>
<path opacity="0.3" d="M146.347 73.2872C146.347 79.1058 151.057 83.8162 156.876 83.8162H173.916L146.347 56.2469V73.2872Z" fill="#6D6D78"/>
<path d="M111.295 73.5643H88.0208C85.9427 73.5643 84.2803 75.2267 84.2803 77.3048V100.579C84.2803 102.657 85.9427 104.32 88.0208 104.32H111.295C113.373 104.32 115.036 102.657 115.036 100.579V77.3048C115.036 75.2267 113.373 73.5643 111.295 73.5643Z" fill="#6D6D78"/>
<path d="M143.298 112.771H87.3281C85.6657 112.771 84.2803 114.156 84.2803 115.819C84.2803 117.481 85.6657 118.867 87.3281 118.867H143.298C144.96 118.867 146.346 117.481 146.346 115.819C146.346 114.156 144.96 112.771 143.298 112.771Z" fill="#6D6D78"/>
<path d="M143.298 127.872H87.3281C85.6657 127.872 84.2803 129.257 84.2803 130.919C84.2803 132.582 85.6657 133.967 87.3281 133.967H143.298C144.96 133.967 146.346 132.582 146.346 130.919C146.346 129.118 144.96 127.872 143.298 127.872Z" fill="#6D6D78"/>
<path d="M117.945 142.418H87.4668C85.8043 142.418 84.4189 143.804 84.4189 145.466C84.4189 147.128 85.8043 148.514 87.4668 148.514H117.945C119.608 148.514 120.993 147.128 120.993 145.466C120.855 143.665 119.608 142.418 117.945 142.418Z" fill="#6D6D78"/>
<path d="M183.197 137.154V197.141C183.197 201.297 179.734 204.761 175.578 204.761H65.7163C61.5602 204.761 58.0967 201.297 58.0967 197.141V137.154L120.716 174.005L183.197 137.154Z" fill="#FFB031"/>
<path d="M181.119 202.544L140.804 162.229L120.578 174.144L100.351 162.229L60.0361 202.544C61.4215 204.068 63.3611 204.899 65.5777 204.899H175.578C177.794 204.899 179.734 203.929 181.119 202.544Z" fill="#FFC800"/>
</svg>
