<svg width="179" height="31" viewBox="0 0 179 31" fill="none" xmlns="http://www.w3.org/2000/svg">
<path d="M16.2 6.8C17.8 8 18.8 9.7 19.2 11.8H14.1C13.8 11.1 13.2 10.5 12.5 10.1C11.8 9.70001 11 9.5 10 9.5C8.5 9.5 7.20002 10 6.30002 11C5.40002 12 4.89999 13.4 4.89999 15.2C4.89999 17.1 5.39999 18.6 6.39999 19.6C7.39999 20.6 8.8 21.1 10.5 21.1C11.7 21.1 12.7 20.8 13.5 20.2C14.4 19.6 15 18.7 15.3 17.5H9.20001V14H19.4V18.8C19 20 18.4 21.1 17.6 22.1C16.8 23.1 15.7 23.9 14.4 24.5C13.1 25.1 11.6 25.4 10 25.4C8 25.4 6.20001 25 4.70001 24.1C3.20001 23.2 2.00001 22 1.20001 20.5C0.400012 19 0 17.2 0 15.2C0 13.2 0.400012 11.5 1.20001 9.90001C2.00001 8.40001 3.20001 7.2 4.70001 6.3C6.20001 5.4 7.9 5 10 5C12.5 5 14.5 5.6 16.2 6.8Z" fill="#FEC704"/>
<path d="M27 9.00019V13.2002H33.8V16.9002H27V21.3002H34.6V25.2002H22.1V5.2002H34.6V9.00019H27Z" fill="#FEC704"/>
<path d="M51.7 5.2002V9.00019H46.3V25.2002H41.4V9.00019H36.1V5.2002H51.7Z" fill="#FEC704"/>
<path d="M81.8 5.2998V25.1998H77V12.7998L72.7 25.1998H68.5L64.1 12.7998V25.2998H59.3V5.3998H65.2L70.6 19.1998L75.9 5.3998H81.8V5.2998Z" fill="white"/>
<path d="M113.2 5.2002L118.1 20.3002L123 5.2002H128.2L121.2 25.2002H114.9L108 5.2002H113.2Z" fill="white"/>
<path d="M134.9 5.2002V25.2002H130.1V5.2002H134.9Z" fill="white"/>
<path d="M156 25.2002H151.2L143.1 12.9002V25.2002H138.3V5.2002H143.1L151.2 17.6002V5.2002H156V25.2002Z" fill="white"/>
<path d="M174.9 6.8C176.5 8 177.5 9.7 177.9 11.8H172.8C172.5 11.1 171.9 10.5 171.2 10.1C170.5 9.70001 169.7 9.5 168.7 9.5C167.2 9.5 165.9 10 165 11C164.1 12 163.6 13.4 163.6 15.2C163.6 17.1 164.1 18.6 165.1 19.6C166.1 20.6 167.5 21.1 169.2 21.1C170.4 21.1 171.4 20.8 172.2 20.2C173.1 19.6 173.7 18.7 174 17.5H167.9V14H178.1V18.8C177.7 20 177.1 21.1 176.3 22.1C175.5 23.1 174.4 23.9 173.1 24.5C171.8 25.1 170.3 25.4 168.7 25.4C166.7 25.4 164.9 25 163.4 24.1C161.9 23.2 160.7 22 159.9 20.5C159.1 19 158.7 17.2 158.7 15.2C158.7 13.2 159.1 11.5 159.9 9.90001C160.7 8.40001 161.9 7.2 163.4 6.3C164.9 5.4 166.6 5 168.6 5C171.2 5 173.3 5.6 174.9 6.8Z" fill="white"/>
<path d="M107.1 15.2998C107.1 20.7998 102.6 25.2998 97.1 25.2998C95.8 25.2998 94.5 24.9998 93.3 24.4998L97.3 20.4998C97.2 20.4998 97.2 20.4998 97.1 20.4998C95.1 20.4998 93.4 19.3998 92.5 17.7998L89.1 21.1998C87.9 19.4998 87.1 17.4998 87.1 15.2998C87.1 12.9998 87.9 10.8998 89.1 9.1998L92.5 12.5998C93.4 10.9998 95.1 9.9998 97.1 9.9998C97.2 9.9998 97.4 9.9998 97.5 9.9998L93.5 5.9998C94.6 5.4998 95.8 5.2998 97.1 5.2998C102.7 5.2998 107.1 9.6998 107.1 15.2998Z" fill="white"/>
<path d="M102.4 15.2996C102.4 15.3996 102.4 15.3996 102.4 15.4996C102.3 18.2996 100.1 20.4996 97.3 20.5996C97.2 20.5996 97.2 20.5996 97.1 20.5996C95.1 20.5996 93.4 19.4996 92.5 17.8996C92.1 17.0996 91.8 16.2996 91.8 15.3996C91.8 14.3996 92.1 13.4996 92.5 12.6996C93.4 11.0996 95.1 10.0996 97.1 10.0996C97.2 10.0996 97.4 10.0996 97.5 10.0996C100.1 10.2996 102.1 12.3996 102.3 14.8996C102.4 14.9996 102.4 15.0996 102.4 15.2996Z" fill="#0E0F11"/>
<path d="M97.6 10C97.5 10 97.3 10 97.2 10C95.3 10 93.6 11 92.6 12.6L89.2 9.2C90.3 7.8 91.8 6.6 93.5 6L97.6 10Z" fill="#FEC704"/>
<path d="M89.2 9.2L83.8 3.8L87.6 0L93.5 5.9C91.8 6.6 90.3 7.8 89.2 9.2Z" fill="#FEC704"/>
<path d="M97.3 20.4998L93.3 24.4998C91.6 23.7998 90.1 22.6998 89.1 21.1998L92.5 17.7998C93.4 19.3998 95.1 20.4998 97.1 20.4998C97.2 20.5998 97.3 20.5998 97.3 20.4998Z" fill="white"/>
<path d="M93.3 24.5002L87.5 30.3002L83.7 26.5002L89 21.2002C90.2 22.7002 91.6 23.8002 93.3 24.5002Z" fill="#FEC704"/>
<path d="M102.7 15.2L102.4 15.5L97.3 20.6C97.2 20.6 97.2 20.6 97.1 20.6C95.1 20.6 93.4 19.5 92.5 17.9L95.1 15.2L92.5 12.6C93.4 11 95.1 10 97.1 10C97.2 10 97.4 10 97.5 10L102.3 14.8L102.7 15.2Z" fill="#FEC704"/>
</svg>
