<svg width="98" height="68" viewBox="0 0 98 68" fill="none" xmlns="http://www.w3.org/2000/svg">
<g style="mix-blend-mode:multiply">
<path d="M42.488 49.4545C42.488 54.7126 40.4953 59.1181 36.5098 62.6708C32.5243 66.2236 27.5425 68 21.5643 68C15.7284 68 10.6754 66.0105 6.40523 62.0313C2.13508 57.9101 0 52.0125 0 44.3386C0 39.791 0.9252 35.2435 2.7756 30.6959C4.626 26.1484 6.97458 21.8851 9.82135 17.906C12.8105 13.9269 16.0131 10.3741 19.4292 7.24765C22.8453 4.12121 26.1191 1.70533 29.2505 0L39.9259 10.4451C38.2179 11.1557 36.4386 12.2215 34.5882 13.6426C32.7378 15.0637 31.0298 16.698 29.4641 18.5455C27.8983 20.2508 26.6173 22.2403 25.6209 24.5141C24.6245 26.6458 24.1264 28.7774 24.1264 30.9091C29.3929 31.6196 33.7342 33.6092 37.1503 36.8777C40.7088 40.0042 42.488 44.1964 42.488 49.4545ZM98 49.4545C98 54.7126 96.0073 59.1181 92.0218 62.6708C88.0363 66.2236 83.0545 68 77.0762 68C71.2404 68 66.1874 66.0105 61.9172 62.0313C57.6471 57.9101 55.512 52.0125 55.512 44.3386C55.512 39.791 56.4372 35.2435 58.2876 30.6959C60.138 26.1484 62.4866 21.8851 65.3333 17.906C68.3224 13.9269 71.525 10.3741 74.9412 7.24765C78.3573 4.12121 81.6311 1.70533 84.7625 0L95.4379 10.4451C93.7298 11.1557 91.9506 12.2215 90.1002 13.6426C88.2498 15.0637 86.5418 16.698 84.976 18.5455C83.4103 20.2508 82.1293 22.2403 81.1329 24.5141C80.1365 26.6458 79.6383 28.7774 79.6383 30.9091C84.9049 31.6196 89.2462 33.6092 92.6623 36.8777C96.2208 40.0042 98 44.1964 98 49.4545Z" fill="#FFC800"/>
</g>
</svg>
