<svg width="51" height="43" viewBox="0 0 51 43" fill="none" xmlns="http://www.w3.org/2000/svg">
<path fill-rule="evenodd" clip-rule="evenodd" d="M2.2266 19.7889L2.1736 20.8138L5.51351 19.9507V18.8718C4.71829 18.9257 2.86278 19.4113 2.2266 19.7889ZM2.2266 21.9467V22.9717C2.86278 23.0256 4.82433 22.3783 5.56653 22.2164V21.1375L2.2266 21.9467ZM2.2266 24.2664V25.2374C2.70373 25.2913 4.87734 24.644 5.56653 24.4282V23.3493C5.03638 23.4032 2.5977 24.0506 2.2266 24.2664ZM6.67984 18.8718V19.9507L10.0197 20.8678V19.7889L6.67984 18.8718ZM6.62682 23.4032V24.4282L9.91371 25.2913V24.2124C9.4896 24.0506 7.20998 23.4032 6.62682 23.4032ZM9.96673 22.0006L6.62682 21.0836V22.1625C7.263 22.3783 9.38357 22.9717 9.96673 22.9717V22.0006ZM9.96673 22.0006L6.62682 21.0836V22.1625C7.263 22.3783 9.38357 22.9717 9.96673 22.9717V22.0006ZM6.67984 24.4282L9.96673 25.2913V24.2124C9.4896 23.9966 7.20998 23.3493 6.62682 23.3493L6.67984 24.4282ZM9.96673 19.7349L6.67984 18.8179V19.8968L10.0197 20.8138L9.96673 19.7349ZM2.2266 25.2374C2.70373 25.2913 4.87734 24.644 5.56653 24.4282V23.3493C4.98337 23.4032 2.5977 24.0506 2.2266 24.2124V25.2374ZM2.2266 22.9717C2.86278 23.0256 4.82433 22.3783 5.56653 22.2164V21.1375L2.2266 21.9467V22.9717ZM5.56653 18.8718C4.7183 18.9257 2.86278 19.4113 2.2266 19.7889L2.1736 20.8138L5.51351 19.9507L5.56653 18.8718ZM42.0405 28.3123C42.8888 27.6649 44.3202 27.6649 44.5322 26.4781C44.6913 25.3992 44.5322 23.1875 44.5322 21.8928C45.0624 22.594 45.2744 24.0506 46.5468 25.615C47.7131 27.0176 48.8264 26.8018 50.841 26.5321C50.6289 26.0466 50.2578 25.7768 49.9397 25.3453C48.8794 23.9427 49.4626 23.0256 46.2817 23.3493L44.1611 18.0626C43.2599 16.1745 42.3056 14.718 41.0863 13.693C39.5489 12.3983 37.9054 12.0207 35.5728 11.8049C33.2931 11.6431 30.8545 11.4273 28.5748 11.3194V10.1865C30.9605 10.1865 33.3462 10.1865 35.6788 10.1865C38.4356 10.1865 39.2308 9.32342 40.2381 7.59715C43.4189 7.38137 43.525 6.03273 44.4792 4.95382C47.236 4.79198 48.5083 3.65912 49.2505 1.3934C41.5634 1.50129 33.2401 1.3934 25.447 1.3934C24.2277 1.3934 22.9023 1.33945 21.948 1.87891C20.9938 2.41837 20.6227 3.11967 20.0925 4.14463C19.3503 3.17361 19.0322 1.44735 16.1164 0.692107C13.6247 0.0447585 11.8753 1.12367 10.974 2.58021L9.59564 4.89987C8.90645 6.19457 8.27026 6.4643 8.32328 7.32743C8.37629 7.75899 8.48233 7.75899 8.53535 8.02872C8.58836 8.3524 8.27027 9.59314 9.4896 9.86287C10.868 10.1326 11.3451 8.78396 12.2994 8.99975C12.7235 10.726 10.0728 9.75498 9.06549 10.8339C9.01248 11.5891 9.33057 11.751 9.59564 12.1286L8.58835 13.8549C7.84615 13.4772 6.89189 12.5062 5.56653 12.7759C4.87734 12.8838 4.98337 13.0996 4.55926 13.3693C3.76404 13.9088 3.2869 13.4233 2.59771 14.4483C2.01455 15.2574 2.43867 16.1206 2.70375 16.8758L0 17.6311V31.1714H51V28.5281L42.0405 28.3123ZM41.8285 16.1206C40.7152 16.0127 39.3898 15.743 38.5946 15.1495C38.1175 14.8259 37.7994 14.5022 37.5343 14.1246C37.2692 13.8009 37.0042 13.3693 36.7391 13.0457C38.9657 12.9378 41.1393 14.7719 41.8285 16.1206ZM35.6258 9.05369H31.0665C31.4907 8.46028 31.7027 8.19055 32.0738 7.54321H39.0187C38.3825 8.67606 37.3222 9.05369 35.6258 9.05369ZM39.92 6.46429C38.3295 6.46429 36.7391 6.46429 35.1487 6.46429C35.5198 5.97878 35.8378 5.38538 36.262 4.89987H43.1539C42.4647 6.03273 41.7225 6.46429 39.92 6.46429ZM40.5561 2.47232H47.5541C47.0239 3.49728 45.7516 3.82096 44.1611 3.82096H39.7079C39.973 3.2815 40.3441 3.11966 40.5561 2.47232ZM13.3067 1.66313C13.5717 1.55524 14.2079 1.33946 15.0561 1.3934C14.2609 1.93286 13.5717 2.31048 13.5187 2.31048C13.5187 2.31048 12.8825 2.31048 12.2994 2.41837C12.5114 2.09469 12.9356 1.71708 13.3067 1.66313ZM10.3378 10.9957C10.5499 10.9418 10.4969 10.9957 10.7089 10.9418C11.6102 10.8878 13.8898 10.8339 13.4127 8.78396C12.8295 6.41035 10.6029 8.73002 9.70166 8.73002C9.80769 8.19056 9.96673 8.2445 10.2318 7.75899C9.91372 7.54321 9.75468 7.48927 9.54262 7.11165C9.75468 6.73403 10.2318 5.92484 10.815 5.763C11.2921 6.08668 11.3981 7.11164 12.1933 6.08667C12.8825 5.1696 11.7162 5.43933 11.1331 5.22355C10.868 3.55123 12.7765 3.92885 13.9958 3.82096C14.685 3.76701 15.9574 2.52626 16.7526 2.31048C16.7526 3.71306 16.2225 4.19858 15.2682 4.73803L15.4272 5.97878C13.0946 6.84192 15.2682 8.89185 14.3139 10.2944C13.7838 11.0497 11.3981 12.1825 10.1788 11.1576C10.2318 10.9957 10.0198 11.1036 10.3378 10.9957ZM11.027 27.3413C10.0197 27.1255 6.83888 26.1005 6.09667 26.1005C4.93035 26.1005 2.54469 27.2334 1.16631 27.2873V18.3323C7.42203 16.2824 5.88461 17.1455 11.08 18.3323L11.027 27.3413ZM8.0052 16.3903C4.50624 15.4732 6.14969 16.2824 3.92307 16.3903C3.07484 14.9877 3.49895 14.3943 5.19542 14.5022C5.56652 13.9627 5.40748 13.5851 6.30873 13.693C8.05821 13.9088 8.90644 16.2285 9.43659 16.5521C10.1258 15.5272 10.1258 15.7969 9.4896 14.664C9.70166 13.9627 10.3908 13.0996 10.762 12.3983C12.5644 12.3983 13.7838 12.2904 14.7911 11.2115C16.2755 9.59314 15.0561 8.67607 15.3212 7.11165C15.6393 6.94981 16.0634 6.9498 16.5405 6.89586C16.5405 5.49327 15.8513 5.763 16.8586 4.68409C17.3358 4.19858 17.5478 3.49728 17.7069 2.58021C20.9408 4.84592 18.5551 9.16158 18.343 10.5102C21.2588 12.0746 19.7744 14.3943 16.8056 14.6101C17.2827 15.3114 18.237 15.3653 18.29 16.2824C18.3961 17.3613 17.6538 17.6311 16.6466 17.6311C15.9574 19.0336 16.1694 19.7889 14.367 20.0586L14.3139 16.9837C13.4127 17.4692 13.4657 18.2244 12.1403 18.3323L12.0343 17.3074C10.7619 17.1995 9.33057 16.7679 8.0052 16.3903ZM13.1476 28.3123H12.1403V19.681L13.3067 19.3573L12.9886 21.2994C14.1549 21.3533 14.738 21.2454 15.7983 20.9217V24.59C12.4054 24.8598 13.0416 26.8018 13.1476 28.3123ZM24.2807 28.3123L18.4491 28.2583C19.0852 28.0426 19.5624 27.7728 19.7744 27.1255C20.1455 25.9926 19.5093 26.1005 20.7817 25.669C20.4636 24.8598 20.1985 24.8598 20.1455 23.619C20.1455 22.8638 20.1455 21.8928 20.4636 21.2994C24.1746 21.2994 25.8711 19.8968 27.8857 19.681C28.1507 20.4362 29.052 21.7309 29.4761 22.4862C30.1653 23.7269 30.4834 23.5111 28.999 25.0216C28.5748 25.4532 28.2037 25.1834 27.4615 25.0755C26.7723 24.9677 26.1362 24.9137 25.553 25.2374C24.4927 25.8308 24.2276 26.7479 24.2807 28.3123ZM25.447 28.3123C25.1289 26.7479 25.8181 25.9387 27.3555 26.2624C29.4761 26.6939 29.211 26.6939 30.3243 25.3453C32.4449 22.8638 30.2183 22.5941 29.052 19.5191C29.9002 19.4652 30.3773 19.4113 31.1726 19.7349C31.9148 20.0047 31.9148 20.1665 32.2328 20.8138C32.4979 21.4072 33.5582 23.2414 33.4522 23.8348C33.3992 24.3203 30.3243 27.5571 29.5291 28.3662L25.447 28.3123ZM37.6934 28.3123H31.0665C31.2786 27.6649 32.0208 27.2334 32.4449 26.7479C35.4667 23.2953 34.6715 24.3203 33.5582 21.0836C38.0114 22.3783 38.2235 21.8928 40.4501 22.4322C40.6091 22.9717 40.7682 23.8348 40.6622 24.4822C39.7079 24.8598 38.5416 24.8058 37.9054 25.3992C37.1102 26.2624 37.4813 27.2334 37.6934 28.3123ZM41.9345 25.2913C41.7225 18.3323 39.7609 23.4572 32.3919 19.0876C29.4231 17.3074 26.1362 19.3034 23.1144 20.0047C22.3191 20.1665 20.0395 20.1665 19.6684 20.3823C19.1383 21.1375 19.0852 22.8098 19.1383 23.8348C19.1383 24.4822 19.4033 25.0216 19.1913 25.3992C18.7141 26.3163 18.9792 25.9387 18.7141 26.9097C17.9719 27.611 17.0177 27.0715 16.3815 27.5031C16.0104 27.7728 16.1694 27.8807 15.5333 28.0965C15.0561 28.2583 14.42 28.4202 14.2079 27.8807L14.0489 27.1794C13.9958 25.615 15.3742 25.9387 16.0634 25.7229C17.2827 25.3453 16.9116 23.1335 16.9116 21.8388C16.9116 18.9257 17.0707 19.1955 18.184 18.5481C19.4033 17.8468 19.4563 16.8219 19.0322 15.2574C20.9408 14.5022 21.789 11.4273 19.6154 10.1326C19.9865 8.51423 20.6227 6.3564 21.0998 4.73803C21.789 2.41837 23.1674 2.52626 25.7651 2.52626C28.1507 2.52626 37.6934 2.41837 39.2838 2.58021C38.4886 4.14463 35.9439 3.92885 33.7703 3.92885C31.6497 3.92885 29.211 3.82096 27.0374 3.92885L26.6133 5.00776H34.9366C33.7173 7.27348 29.5821 6.41035 25.8711 6.57219L25.394 7.6511H30.7484C29.6882 9.64709 27.0374 9.05368 24.5457 9.16158C24.3337 9.5392 24.1216 9.86287 24.1216 10.2405H26.8254C27.3025 10.2405 27.1965 10.1866 27.5676 10.3484C27.7266 11.1036 27.5146 11.751 26.8254 12.0207C26.0832 12.2904 25.7121 11.8049 24.9699 11.751L24.3337 12.3983C24.8638 12.8838 26.0301 13.2615 26.8784 13.0457C27.4615 12.9378 27.5676 12.6141 27.9387 12.5062C28.3098 12.3444 34.0884 12.8838 35.2017 12.9378C35.6788 13.4772 35.9969 14.1246 36.474 14.718C38.7006 17.685 41.5104 16.8758 42.5177 17.4692L43.0478 18.3323C43.631 19.5191 43.4189 19.8968 43.4189 21.5151C43.4189 23.1875 43.4189 24.8058 43.4189 26.4781C42.9418 26.8558 39.6549 28.2044 38.8597 28.3123C37.2692 25.2374 40.5031 26.1545 41.9345 25.2913ZM9.96673 22.0006L6.62682 21.0836V22.1625C7.263 22.3783 9.38357 22.9717 9.96673 22.9717V22.0006ZM9.96673 25.2913V24.2124C9.4896 23.9966 7.20998 23.3493 6.62682 23.3493V24.3743L9.96673 25.2913ZM9.96673 19.7349L6.67984 18.8179V19.8968L10.0197 20.8138L9.96673 19.7349ZM2.2266 25.2374C2.70373 25.2913 4.87734 24.644 5.56653 24.4282V23.3493C4.98337 23.4032 2.5977 24.0506 2.2266 24.2124V25.2374ZM2.2266 22.9717C2.86278 23.0256 4.82433 22.3783 5.56653 22.2164V21.1375L2.2266 21.9467V22.9717ZM5.56653 18.8718C4.7183 18.9257 2.86278 19.4113 2.2266 19.7889L2.1736 20.8138L5.51351 19.9507L5.56653 18.8718Z" fill="#7D8A99"/>
<path fill-rule="evenodd" clip-rule="evenodd" d="M5.56653 20.0047L2.2266 20.8678L2.27962 19.8428C2.91579 19.4652 4.77131 18.9797 5.61955 18.9257L5.56653 20.0047Z" fill="#7D8A99"/>
<path fill-rule="evenodd" clip-rule="evenodd" d="M2.2266 21.9467L5.56653 21.1375V22.2164C4.82433 22.4322 2.86278 23.0796 2.2266 22.9717V21.9467Z" fill="#7D8A99"/>
<path fill-rule="evenodd" clip-rule="evenodd" d="M2.2266 24.2664C2.5977 24.0506 5.03638 23.4032 5.56653 23.4032V24.4822C4.93035 24.644 2.75675 25.2913 2.2266 25.2913V24.2664Z" fill="#7D8A99"/>
<path fill-rule="evenodd" clip-rule="evenodd" d="M9.96673 20.8678L6.62682 19.9507L6.67984 18.8718L9.96673 19.7349V20.8678Z" fill="#7D8A99"/>
<path fill-rule="evenodd" clip-rule="evenodd" d="M6.62682 23.4032C7.20998 23.4032 9.4896 24.0506 9.96673 24.2664V25.3453L6.67984 24.4822L6.62682 23.4032Z" fill="#7D8A99"/>
<path fill-rule="evenodd" clip-rule="evenodd" d="M10.0197 23.0256C9.43659 23.0256 7.31601 22.4322 6.67984 22.2164V21.1375L10.0197 22.0546V23.0256Z" fill="#7D8A99"/>
<path fill-rule="evenodd" clip-rule="evenodd" d="M5.56653 18.8718V19.9507L2.2266 20.8138L2.27962 19.7889C2.86278 19.4113 4.7183 18.9257 5.56653 18.8718Z" fill="#7D8A99"/>
<path fill-rule="evenodd" clip-rule="evenodd" d="M5.56653 23.3493V24.4282C4.93035 24.59 2.75675 25.2374 2.2266 25.2374V24.2664C2.5977 24.0506 5.03638 23.4032 5.56653 23.3493Z" fill="#7D8A99"/>
<path fill-rule="evenodd" clip-rule="evenodd" d="M9.96673 24.2124V25.2913L6.67984 24.4282V23.4032C7.20998 23.4032 9.4896 24.0506 9.96673 24.2124Z" fill="#7D8A99"/>
<path fill-rule="evenodd" clip-rule="evenodd" d="M10.0197 23.0256C9.43659 23.0256 7.31601 22.4322 6.67984 22.2164V21.1375L10.0197 22.0546V23.0256Z" fill="#7D8A99"/>
<path fill-rule="evenodd" clip-rule="evenodd" d="M5.56653 21.1375V22.2164C4.82433 22.4322 2.86278 23.0796 2.2266 22.9717V21.9467L5.56653 21.1375Z" fill="#7D8A99"/>
<path fill-rule="evenodd" clip-rule="evenodd" d="M9.96673 19.7349V20.8678L6.62682 19.9507L6.67984 18.8718L9.96673 19.7349Z" fill="#7D8A99"/>
<path fill-rule="evenodd" clip-rule="evenodd" d="M27.9387 39.1554C27.9387 39.3172 27.8857 39.4251 27.8857 39.5869C27.8857 39.7488 27.8326 39.8567 27.8326 39.9646C27.8326 40.0724 27.7796 40.1803 27.7796 40.2882C27.7266 40.3961 27.7266 40.504 27.6736 40.6119C27.5145 40.9895 27.3555 41.3132 27.1434 41.475C26.9314 41.6908 26.7193 41.7987 26.4012 41.8527C26.1362 41.9066 25.7651 41.9605 25.2879 41.9605H24.4927V38.0225H24.9699C25.1819 38.0225 25.341 38.0765 25.5 38.1304C25.6591 38.1844 25.7651 38.2922 25.8711 38.4541C25.9241 38.508 25.9771 38.6159 25.9771 38.7238C26.0302 38.8317 26.0832 38.9396 26.1362 39.0475C26.1892 39.1554 26.1892 39.3172 26.2422 39.4251C26.2422 39.479 26.2422 39.5869 26.2952 39.6409C26.2952 39.6948 26.2952 39.8027 26.2952 39.9106H26.6133V35.8647H26.3482C26.3482 35.9186 26.3482 36.0265 26.3482 36.1344C26.3482 36.1884 26.3482 36.2963 26.2952 36.3502C26.2952 36.4041 26.2952 36.4041 26.2952 36.4581C26.2952 36.512 26.2952 36.512 26.2422 36.566C26.2422 36.6199 26.1892 36.6199 26.1892 36.6739C26.1892 36.6739 26.1892 36.7278 26.1362 36.7818C26.1362 36.8357 26.0832 36.8357 26.0832 36.8897C26.0832 36.9436 26.0302 36.9436 26.0302 36.9975C26.0302 37.0515 25.9771 37.0515 25.9771 37.1054C25.9771 37.1594 25.9241 37.1594 25.9241 37.2133C25.8181 37.3212 25.7121 37.4291 25.553 37.537C25.394 37.5909 25.1819 37.6449 24.9699 37.6449H24.5457V33.9226H25.9771C26.2952 33.9226 26.7193 34.0845 26.9844 34.2463C27.2495 34.4081 27.4615 34.6779 27.6206 35.0555C27.6736 35.1634 27.6736 35.2713 27.7266 35.3792C27.7796 35.4871 27.7796 35.595 27.8326 35.7568C27.8857 35.8647 27.8857 36.0265 27.9387 36.1884C27.9387 36.3502 27.9917 36.512 27.9917 36.6739H28.2568V33.4911H19.1913V33.9226C20.1455 33.9226 20.5166 34.3003 20.5166 34.8937V39.8027L16.3285 33.545H13.8898V33.9766C14.8441 33.9766 15.5333 34.2463 15.5333 34.8937C15.5333 35.2713 15.5333 41.3132 15.5333 41.3132C15.5333 41.9605 14.2079 42.1763 14.2079 42.1763V42.5H17.2828V42.1224C16.9116 42.1224 15.9574 41.9066 15.9574 41.2593V35.4331L20.7817 42.4461H20.9408V34.6239C20.9938 33.9766 21.683 33.9226 22.0541 33.9226H23.2204V42.0145H22.0541V42.4461H28.4158V39.1554H27.9387ZM47.5011 39.2633C47.5011 39.3712 47.448 40.0724 47.395 40.1264C47.395 40.2343 47.342 40.504 47.289 40.6659C47.236 40.8816 47.183 41.0435 47.0769 41.2053C46.9709 41.3671 46.7058 41.9066 46.2817 41.9605C46.2287 41.9605 45.5395 41.9605 45.5395 41.9605H44.7973V33.8687H46.0697V33.4371H42.1466V33.8687H43.3129V41.9605H42.6237L39.4958 33.4371H39.0187C39.0187 33.4371 38.9657 33.599 38.8597 33.8687C38.8067 34.1384 38.7006 34.4081 38.5416 34.7858C38.4356 35.1634 38.2765 35.595 38.1175 36.0805C37.9584 36.566 37.7994 37.0515 37.6403 37.537C37.4813 38.0225 37.3223 38.508 37.1632 38.9935C37.0042 39.479 36.8451 39.9106 36.7391 40.2882C36.58 40.8277 36.527 40.9895 36.421 41.2053C36.368 41.4211 36.209 41.6908 36.1029 41.7987C35.9439 41.9605 35.8909 42.0145 35.6788 42.0145C35.3607 42.0145 35.3607 41.7448 35.3607 41.6369V40.1264C35.3607 39.7488 35.3077 38.8317 34.9366 38.4001C34.4595 37.9146 33.7173 37.9146 33.7173 37.8607C33.7173 37.8607 35.6788 37.4291 35.6788 35.541C35.6788 34.0305 34.7775 33.4911 33.2401 33.4371H28.8399V33.8148H30.0062V41.9605H28.8399V42.3921H32.4979V41.9605H31.3316V38.0765H32.869C35.4667 38.2922 32.71 42.3921 35.4137 42.3921H37.9584V42.0145C37.9584 42.0145 37.8524 42.0145 37.7464 42.0145C37.5343 42.0145 37.4283 42.0145 37.2692 41.8527C37.1632 41.7448 37.0572 41.6369 37.0572 41.475C37.0572 41.3132 37.0572 41.2053 37.1102 41.0974C37.1102 40.9895 37.1632 40.8816 37.2162 40.7737C37.2692 40.6659 37.3223 40.504 37.3753 40.3422C37.4283 40.1803 37.4813 40.0185 37.5343 39.9106C37.5873 39.8027 37.5873 39.6948 37.6403 39.6409H40.4501C40.4501 39.6409 40.5031 39.7488 40.5561 39.9106C40.6092 40.0724 40.6622 40.2343 40.7152 40.3961C40.7682 40.558 40.8212 40.7198 40.8742 40.8816C40.9272 41.0435 40.9803 41.0974 40.9803 41.1514C40.9803 41.2053 41.0333 41.2593 41.0333 41.2593C41.0333 41.3132 41.0333 41.3671 41.0863 41.3671C41.0863 41.4211 41.1393 41.475 41.1393 41.475C41.1393 41.529 41.1923 41.5829 41.1923 41.5829C41.2453 41.6369 41.2453 41.7448 41.2983 41.9066H40.3441V42.3382H47.9252V39.1554H47.5011V39.2633ZM32.71 37.6449H31.2256V33.9226H33.0811C34.1414 34.0845 34.1944 35.3792 34.1944 35.8107C34.1944 36.7278 33.8233 37.6449 32.71 37.6449ZM37.5343 39.3172L38.7537 35.541L40.079 39.3172H37.5343ZM4.02911 38.1304H5.19542V40.9895C4.98336 41.7448 3.92307 42.0145 3.60498 42.0145C1.43139 42.0145 1.59044 38.7238 1.59044 37.8607C1.59044 37.0515 1.53742 33.7069 3.60498 33.7069C5.08939 33.7069 5.88461 35.2173 6.20269 36.566H6.41477C6.41477 36.0265 6.41477 33.3292 6.41477 33.3292L5.40748 34.0845C5.40748 34.0305 4.93035 33.3832 3.60498 33.3832C1.00727 33.3832 0.0530178 36.0265 0.0530178 37.8607C0.0530178 39.533 0.795212 42.2842 3.60498 42.3921C4.45322 42.4461 5.08939 41.9605 5.40748 41.4211L6.52078 42.3921V38.0765H7.63409V37.6988H4.02911V38.1304ZM49.8337 42.0145V33.9226H51V33.4911H47.342V33.9226H48.4553V42.0145H47.9782V42.4461H51V42.0145H49.8337ZM13.1476 39.1554C13.1476 39.3172 13.0946 39.4251 13.0946 39.5869C13.0946 39.7488 13.0416 39.8567 13.0416 39.9646C13.0416 40.0724 12.9886 40.2343 12.9886 40.2882C12.9886 40.3422 12.9355 40.504 12.8825 40.6119C12.7235 40.9895 12.5644 41.3132 12.4054 41.475C12.1933 41.6908 11.9813 41.7987 11.6632 41.8527C11.3981 41.9066 11.027 41.9605 10.5499 41.9605H9.75468V38.0225H10.2318C10.3908 38.0225 10.6029 38.0765 10.762 38.1304C10.921 38.1844 11.08 38.3462 11.1331 38.4541C11.1861 38.508 11.2391 38.6159 11.2921 38.7238C11.3451 38.8317 11.3981 38.9396 11.4511 39.0475C11.5042 39.1554 11.5042 39.3172 11.5572 39.4251C11.5572 39.479 11.6102 39.8027 11.6102 39.9106H11.9283V35.8647H11.6632C11.6632 35.8647 11.6102 36.1884 11.6102 36.2962C11.6102 36.4041 11.6102 36.4581 11.5572 36.566C11.5572 36.6199 11.5042 36.7278 11.4511 36.7818C11.4511 36.8357 11.3981 36.8896 11.3451 36.9436C11.2921 37.0515 11.2391 37.1054 11.1861 37.1594C11.1331 37.2133 10.974 37.3752 10.815 37.4831C10.6559 37.537 10.4439 37.591 10.2318 37.591H9.80769V33.8687C9.96674 33.8687 11.027 33.8687 11.1861 33.8687C11.6102 33.8687 11.9813 34.0305 12.2464 34.1924C12.5114 34.3542 12.7235 34.6239 12.8825 35.0016C12.9355 35.1094 12.9356 35.2173 12.9886 35.3252C13.0416 35.4331 13.0416 35.541 13.0946 35.7029C13.1476 35.8107 13.1476 35.9726 13.2006 36.1344C13.2006 36.2962 13.2536 36.4581 13.2536 36.6199H13.5187V33.4911H7.36902V33.9226H8.42931V42.0145H7.26299V42.4461H13.6247V39.1554H13.1476Z" fill="#7D8A99"/>
</svg>
