<svg width="76" height="27" viewBox="0 0 76 27" fill="none" xmlns="http://www.w3.org/2000/svg">
<path d="M0 1.67939V26.5H70.9826V1.67939H0ZM35.4913 25.8567C16.1612 25.8567 0.528145 20.6031 0.528145 14.0629C0.528145 7.5763 16.1612 2.26908 35.4913 2.26908C54.8214 2.26908 70.4545 7.52269 70.4545 14.0629C70.4545 20.6031 54.8214 25.8567 35.4913 25.8567Z" fill="#7D8A99"/>
<path d="M16.3725 9.77424C16.4781 9.66702 16.3725 9.6134 16.214 9.6134H10.246C10.0876 9.6134 10.0347 9.66702 10.0875 9.77424C10.1404 9.82785 10.2988 10.4175 10.2988 10.9536V17.6546C10.2988 18.2443 10.1932 18.7804 10.0875 18.834C9.98192 18.9412 10.0876 18.9948 10.246 18.9948H16.214C16.3725 18.9948 16.4253 18.9412 16.3725 18.834C16.3197 18.7804 16.1612 18.1907 16.1612 17.6546V10.9536C16.1612 10.3639 16.2669 9.82785 16.3725 9.77424Z" fill="#7D8A99"/>
<path d="M30.8965 13.5268C30.7908 13.366 30.738 13.2588 30.8965 13.0979L33.3259 9.66701C33.3787 9.61341 33.3787 9.55979 33.3259 9.55979H27.4635C27.4107 9.55979 27.4107 9.61341 27.4107 9.66701C27.4107 9.72062 27.4635 9.82784 27.3579 9.93505L25.1925 12.9371V10.9536C25.1925 10.3639 25.2981 9.82785 25.4037 9.77424C25.5094 9.66702 25.4038 9.6134 25.2453 9.6134H19.4885C19.3301 9.6134 19.2773 9.66702 19.3301 9.77424C19.3829 9.82785 19.5414 10.4175 19.5414 10.9536V17.6546C19.5414 18.2443 19.4357 18.7804 19.3301 18.834C19.2245 18.9412 19.3301 18.9948 19.4885 18.9948H25.2453C25.4038 18.9948 25.4566 18.9412 25.4037 18.834C25.3509 18.7804 25.1925 18.1907 25.1925 17.6546V15.4031L27.041 18.2979C27.1466 18.4052 27.041 18.8876 27.041 18.9412C27.041 18.9948 27.041 19.0485 27.0938 19.0485H34.2766C34.3294 19.0485 34.3294 18.9948 34.2766 18.9412L30.8965 13.5268Z" fill="#7D8A99"/>
<path d="M36.1251 9.77424C36.1779 9.82785 36.3363 10.3639 36.3363 10.9536V17.5474C36.3363 18.1371 36.2307 18.6196 36.1251 18.7268C36.0194 18.834 36.1251 18.8876 36.2835 18.8876H46.6352V16.1C46.6352 15.9392 46.5824 15.8856 46.4767 15.9392C46.4239 15.9928 45.8958 16.1536 45.3148 16.1536H42.0403C41.8819 16.1536 41.8819 16.0464 41.8819 15.9928V15.4567C41.8819 15.4031 41.8819 15.2959 42.0403 15.2959H44.3113C44.5226 15.2959 45.4204 15.2423 45.4732 15.3495C45.5261 15.4031 45.6317 15.4031 45.6317 15.2423V12.9907C45.6317 12.8299 45.5261 12.8299 45.4732 12.8835C45.4204 12.9371 44.5754 12.9371 44.3113 12.9371H42.0403C41.8819 12.9371 41.8819 12.8299 41.8819 12.7763V12.2938C41.8819 12.2402 41.8819 12.133 42.0403 12.133H45.3148C45.8958 12.133 46.3711 12.2402 46.4767 12.3474C46.5824 12.4546 46.6352 12.3474 46.6352 12.1866V9.55979H36.2835C36.1251 9.6134 36.0194 9.66702 36.1251 9.77424Z" fill="#7D8A99"/>
<path d="M59.5219 9.88144C59.6275 9.66701 59.5219 9.6134 59.3634 9.6134H51.3357C51.1772 9.6134 51.1244 9.66701 51.1772 9.88144C51.2828 10.0959 51.23 10.3103 51.1772 10.4711C51.1244 10.632 48.0612 18.8876 48.0612 18.8876H53.0257C53.1313 18.8876 53.1842 18.834 53.1313 18.7268C53.0785 18.6196 53.0785 18.4588 53.1313 18.2979L53.3954 17.3866C53.501 17.1186 53.6067 17.1186 53.8179 17.1186H55.9833C56.1946 17.1186 56.3002 17.1722 56.4058 17.3866L56.6699 18.2979C56.7227 18.4588 56.7227 18.6196 56.6699 18.7268C56.6171 18.834 56.6699 18.8876 56.7756 18.8876H62.9549C62.9549 18.8876 59.5219 10.5784 59.4691 10.4711C59.5219 10.3103 59.4691 10.0959 59.5219 9.88144ZM55.3496 15.3495H54.2405C54.1876 15.3495 54.1348 15.2423 54.1876 15.1887L54.7158 13.9021C54.7158 13.8485 54.7686 13.8484 54.8214 13.8484C54.8742 13.8484 54.8742 13.9021 54.927 13.9021L55.4552 15.1887C55.4552 15.2423 55.4552 15.3495 55.3496 15.3495Z" fill="#7D8A99"/>
<path d="M74.7853 2.16186C74.7853 1.67938 74.4684 1.41135 73.8874 1.41135H72.9368V3.98454H73.3065V2.85876H73.729L74.4156 3.98454H74.8381L74.0987 2.85876C74.4684 2.80515 74.7853 2.64433 74.7853 2.16186ZM73.3065 2.53712V1.733H73.8346C74.0987 1.733 74.3628 1.7866 74.3628 2.10825C74.3628 2.48351 74.0987 2.53712 73.729 2.53712H73.3065Z" fill="#7D8A99"/>
<path d="M73.7818 0.5C72.5671 0.5 71.5636 1.46495 71.5636 2.69794C71.5636 3.98454 72.5671 4.89588 73.7818 4.89588C74.9965 4.89588 76 3.93093 76 2.69794C75.9472 1.46495 74.9437 0.5 73.7818 0.5ZM73.7818 4.57423C72.7783 4.57423 71.9861 3.77011 71.9861 2.69794C71.9861 1.62578 72.7783 0.875264 73.7818 0.875264C74.7853 0.875264 75.5247 1.67938 75.5247 2.69794C75.5247 3.77011 74.7325 4.57423 73.7818 4.57423Z" fill="#7D8A99"/>
</svg>
