<svg width="67" height="21" viewBox="0 0 67 21" fill="none" xmlns="http://www.w3.org/2000/svg">
<path fill-rule="evenodd" clip-rule="evenodd" d="M3.16275 0.605431H0V20.0574H16.9734V17.1053H3.16275V0.605431ZM21.9284 20.0574H25.0912V5.98239H21.9284V20.0574ZM23.5098 0.552715C22.5083 0.552715 21.6649 1.34344 21.7176 2.39775C21.7176 3.39934 22.6137 4.19007 23.6152 4.19007C24.6168 4.13735 25.3547 3.39934 25.3547 2.39775C25.302 1.34344 24.5113 0.552715 23.5098 0.552715ZM43.3824 7.61656C42.3282 6.82583 40.9577 6.40411 39.2709 6.35139C36.3717 6.24596 34.3159 7.61656 34.3159 7.61656V0.605431H31.1004V19.4775C31.1004 19.4775 31.3113 19.5829 31.4694 19.6356C32.7872 20.1628 34.2632 20.4264 35.95 20.4791C38.6383 20.5845 41.0104 20.3209 42.8026 19.0031C44.9111 17.4743 45.8599 15.5239 45.8599 12.9408C45.9126 10.5159 45.0692 8.88173 43.3824 7.61656ZM41.3794 16.9472C40.4832 17.7379 39.1127 18.1069 37.3732 18.0542C36.2135 18.0015 35.1593 17.8433 34.3159 17.6325V10.674C34.3159 10.674 35.7918 8.82901 38.2166 8.82901C39.5344 8.82901 40.6414 9.14531 41.4321 9.93603C42.3282 10.8322 42.7499 11.8865 42.7499 13.5207C42.8026 15.1548 42.3282 16.1037 41.3794 16.9472ZM63.6241 5.98239V20.0574H66.7868V5.98239H63.6241ZM65.2054 4.13735C66.207 4.13735 66.9977 3.39934 66.9977 2.39775C67.0504 1.44888 66.207 0.5 65.2054 0.5C64.1512 0.5 63.3605 1.29073 63.3605 2.29232C63.4132 3.34662 64.2566 4.13735 65.2054 4.13735ZM53.0815 7.82742C52.7653 6.45683 52.5017 5.92967 52.5017 5.92967H49.339L49.6552 6.61497C50.1296 7.72199 50.3405 8.93444 50.3405 10.305V20.0574H53.5032V13.3098C53.5032 11.5702 54.1885 10.4632 54.8211 9.88332C55.559 9.1453 56.5079 8.7763 57.4567 8.72358C58.1947 8.67087 59.1962 8.82901 59.1962 8.82901L59.9869 6.14053C59.9869 6.14053 58.8799 5.71881 57.404 5.71881C55.6117 5.71881 54.0831 6.50954 53.0815 7.82742Z" fill="#7D8A99"/>
</svg>
