<svg width="73" height="45" viewBox="0 0 73 45" fill="none" xmlns="http://www.w3.org/2000/svg">
<path fill-rule="evenodd" clip-rule="evenodd" d="M19.3597 13.912V7.0095H14.9209L10.2681 21.5101H14.6L16.3648 14.9822L16.5788 21.5101H19.2527L22.0337 14.9822L21.285 21.5101H25.6168L26.4725 7.0095H22.0337L19.3597 13.912Z" fill="#7D8A99"/>
<path fill-rule="evenodd" clip-rule="evenodd" d="M46.9553 7.0095H42.463L39.7355 21.5101H44.6022L48.0249 17.069H45.03L46.9553 7.0095Z" fill="#7D8A99"/>
<path fill-rule="evenodd" clip-rule="evenodd" d="M71.0747 2.1938C69.4168 0.535064 67.1172 0 64.8711 0H10.2146C2.46006 0 0 5.45778 0 12.4673C0 13.7515 0.106947 15.0892 0.320866 16.3734C0.534786 17.8181 0.855674 19.3163 1.28351 20.7075C2.13919 23.8644 3.31575 26.9679 4.81319 29.9108C6.57802 33.4423 8.82417 37.0274 11.6051 39.8098C14.0117 42.2711 17.0601 44.3579 20.5363 44.893C21.0711 44.9465 21.5524 45 22.0872 45C24.0124 45 26.3121 44.0904 28.0769 43.2878C28.8791 42.9132 29.6278 42.5387 30.3766 42.1641C33.5853 40.3983 36.7941 38.6326 39.9494 36.7598C44.4952 34.0844 48.9341 31.2485 53.2659 28.3056C55.7795 26.5933 58.2396 24.7741 60.6462 22.9013C62.8388 21.1891 64.978 19.3163 66.9033 17.3365C69.4168 14.8216 73 10.7015 73 6.9025C72.893 5.13674 72.3048 3.42448 71.0747 2.1938ZM22.0337 41.522C10.8029 41.522 1.55091 22.0987 1.55091 12.0392C1.55091 7.00951 2.88791 3.90605 5.77582 2.46134C4.33186 3.42448 3.52966 4.81569 3.10183 6.09988C2.46007 8.02616 2.19266 10.2735 2.46006 12.5208C3.9575 25.8977 13.5304 33.9239 19.0923 37.5624C21.6059 39.2212 23.9055 40.1843 25.9912 40.5589C24.2264 41.1474 22.8894 41.522 22.0337 41.522ZM53.1055 24.8276C47.5436 28.7872 39.5216 33.6564 32.6762 36.9203C29.3069 38.5256 25.9377 39.0071 20.3758 35.7432C14.493 32.3187 4.97362 24.0785 3.69011 12.0927C3.10183 6.95599 4.75969 2.8359 10.2146 2.8359H64.8176C69.3634 2.8359 70.0051 5.35077 70.0051 6.84898C70.0586 8.66825 68.4007 14.019 53.1055 24.8276Z" fill="#7D8A99"/>
<path fill-rule="evenodd" clip-rule="evenodd" d="M37.5963 7.54458C34.7084 5.83234 30.5905 7.43757 28.3978 11.1296C26.2051 14.8216 26.7399 19.2093 29.5744 20.9215C32.4623 22.6338 36.5802 21.0285 38.7729 17.3365C41.019 13.6445 40.4842 9.25683 37.5963 7.54458ZM35.9919 14.2331C35.6711 15.8383 34.3875 17.1225 33.1575 17.1225C31.874 17.1225 31.0718 15.8383 31.3927 14.2331C31.7135 12.6278 32.9971 11.3436 34.2271 11.3436C35.5106 11.3971 36.2593 12.6813 35.9919 14.2331Z" fill="#7D8A99"/>
</svg>
