<svg width="96" height="21" viewBox="0 0 96 21" fill="none" xmlns="http://www.w3.org/2000/svg">
<path d="M0 0H9.7734C9.7734 3.33846 9.7734 6.67692 9.7734 10.0154C6.5156 10.0154 3.2578 10.0154 0 10.0154V0Z" fill="#7D8A99"/>
<path d="M10.7718 0H20.5452C20.5452 3.33846 20.5452 6.67692 20.5452 10.0154C17.2874 10.0154 14.0296 10.0154 10.7718 10.0154C10.7718 6.62308 10.7718 3.33846 10.7718 0Z" fill="#7D8A99"/>
<path d="M42.8243 3.93077C43.2447 3.87692 43.7176 4.03846 43.9803 4.36154C44.2956 4.73846 44.3481 5.33077 44.1379 5.76154C43.8752 6.24615 43.2447 6.46154 42.7192 6.35385C42.1938 6.24615 41.7208 5.70769 41.7208 5.16923C41.7208 4.52308 42.1938 3.98462 42.8243 3.93077Z" fill="#7D8A99"/>
<path d="M26.6404 4.2C27.6388 4.2 28.6897 4.2 29.688 4.2C30.6338 6.67692 31.5796 9.15385 32.578 11.6308C32.8407 12.2769 33.0509 12.8692 33.3136 13.5154C34.5222 10.3923 35.7832 7.32308 36.9918 4.2C37.9901 4.2 38.936 4.2 39.9343 4.2C39.9343 8.4 39.9343 12.6 39.9343 16.8C39.1987 16.8 38.5156 16.8 37.78 16.8C37.78 13.6769 37.78 10.6077 37.78 7.48462C37.78 7.32308 37.78 7.21539 37.78 7.05385C37.7274 7.10769 37.7274 7.16154 37.6749 7.26923C36.4663 10.4462 35.2053 13.6231 33.9967 16.8C33.4713 16.8 32.9984 16.8 32.4729 16.8C31.2118 13.6231 29.9507 10.4462 28.7422 7.26923C28.6897 7.21538 28.6897 7.16154 28.6371 7.05385C28.6371 8.4 28.6371 9.74615 28.6371 11.1462C28.6371 13.0308 28.6371 14.9154 28.6371 16.8C27.954 16.8 27.3235 16.8 26.6404 16.8C26.6404 12.6 26.6404 8.4 26.6404 4.2Z" fill="#7D8A99"/>
<path d="M48.6043 7.75385C49.6026 7.43077 50.7061 7.48462 51.757 7.75385C51.9672 7.80769 52.1773 7.91539 52.335 8.02308C52.335 8.72308 52.335 9.42308 52.335 10.0692C51.6519 9.53077 50.8112 9.20769 49.9179 9.31538C49.2348 9.36923 48.5517 9.74615 48.1839 10.3385C47.6585 11.0385 47.5534 11.9538 47.6059 12.8154C47.6585 13.5154 47.9212 14.1615 48.4466 14.5923C48.9721 15.0769 49.7077 15.2385 50.4433 15.1846C51.1264 15.0769 51.757 14.8077 52.335 14.3769C52.335 15.0231 52.335 15.6692 52.335 16.3154C51.4943 16.8538 50.4434 16.9615 49.445 16.9077C48.4466 16.8538 47.4483 16.4769 46.7126 15.7231C45.9245 14.9154 45.5041 13.8385 45.4516 12.7077C45.399 11.5231 45.6092 10.3385 46.2923 9.36923C46.8177 8.61539 47.6585 8.02308 48.6043 7.75385Z" fill="#7D8A99"/>
<path d="M71.6716 7.59231C72.6699 7.43077 73.6683 7.53846 74.6141 7.91538C74.6141 8.56154 74.6141 9.26154 74.6141 9.90769C73.9836 9.47692 73.1954 9.20769 72.4072 9.26154C71.9869 9.26154 71.5665 9.42308 71.4089 9.85385C71.2512 10.2308 71.3563 10.7154 71.7241 10.9846C72.3021 11.4154 73.0378 11.5769 73.6683 11.9538C74.1412 12.2231 74.6141 12.6 74.8768 13.1385C75.3498 14.1077 75.1396 15.4538 74.3514 16.1538C73.5632 16.9077 72.4598 17.1231 71.4089 17.0692C70.6732 17.0154 69.9376 16.8538 69.2545 16.5846C69.2545 15.8846 69.2545 15.1846 69.2545 14.4846C69.8325 14.9154 70.4631 15.1846 71.1461 15.3462C71.619 15.4 72.1445 15.4538 72.6174 15.1846C73.0378 14.9692 73.1429 14.3231 72.8801 13.9462C72.6174 13.6769 72.3021 13.4615 71.9343 13.3538C71.3038 13.0846 70.6732 12.8154 70.0952 12.3846C69.7274 12.0615 69.4121 11.6308 69.3071 11.1462C69.1494 10.4462 69.202 9.63846 69.6223 8.99231C69.9901 8.18462 70.8309 7.75385 71.6716 7.59231Z" fill="#7D8A99"/>
<path d="M57.064 7.91539C57.642 7.53846 58.3777 7.53846 59.0082 7.75385C59.0082 8.45385 59.0082 9.20769 59.0082 9.90769C58.5879 9.63846 58.0624 9.53077 57.5895 9.58462C57.0115 9.63846 56.5386 10.1231 56.2759 10.6615C56.0131 11.2538 55.9606 11.9 55.9606 12.4923C55.9606 13.9462 55.9606 15.3462 55.9606 16.8C55.2775 16.8 54.5944 16.8 53.8588 16.8C53.8588 13.7846 53.8588 10.7692 53.8588 7.75385C54.5419 7.75385 55.225 7.75385 55.9606 7.75385C55.9606 8.29231 55.9606 8.77692 55.9606 9.31539C56.1708 8.72308 56.5386 8.18462 57.064 7.91539Z" fill="#7D8A99"/>
<path d="M41.931 7.75385C42.6141 7.75385 43.3498 7.75385 44.0328 7.75385C44.0328 10.7692 44.0328 13.7846 44.0328 16.8C43.3498 16.8 42.6141 16.8 41.931 16.8C41.931 13.7846 41.931 10.7692 41.931 7.75385Z" fill="#7D8A99"/>
<path d="M67.7832 9.85385C67.4154 9.04615 66.7323 8.34615 65.9442 7.96923C64.9983 7.53846 63.9475 7.48462 62.9491 7.59231C61.8982 7.7 60.8473 8.23846 60.1642 9.1C59.5337 9.85385 59.2709 10.8769 59.1658 11.8462C59.0607 13.0308 59.2709 14.2692 59.954 15.2385C60.532 16.1 61.4253 16.6385 62.3711 16.8538C63.1593 17.0154 64.0525 17.0154 64.8407 16.8538C65.7865 16.6385 66.6798 16.1 67.2578 15.3462C67.8358 14.5923 68.0985 13.6769 68.2036 12.7077C68.2562 11.7385 68.1511 10.7692 67.7832 9.85385ZM65.734 14C65.5238 14.4846 65.156 14.8615 64.6831 15.0231C64.1576 15.2385 63.5271 15.2385 62.9491 15.0769C62.3711 14.9154 61.8982 14.4846 61.6355 13.9462C61.3202 13.2462 61.2676 12.4385 61.3202 11.6846C61.3727 10.9846 61.6355 10.2846 62.1084 9.8C62.4762 9.42308 63.0016 9.26154 63.4745 9.26154C64.1051 9.20769 64.7882 9.42308 65.2611 9.85385C65.734 10.3385 65.9442 11.0385 65.9967 11.7385C66.0493 12.5462 66.0493 13.3 65.734 14Z" fill="#7D8A99"/>
<path d="M84.6502 10.1231C84.335 9.20769 83.6519 8.45385 82.8637 8.02308C81.9179 7.53846 80.7619 7.43077 79.711 7.59231C78.8703 7.7 78.0296 8.02308 77.399 8.61539C76.6108 9.31538 76.1379 10.3385 76.0328 11.3615C75.9278 12.4385 75.9278 13.5154 76.3481 14.4846C76.7685 15.4538 77.5566 16.2077 78.5025 16.6385C79.4483 17.0154 80.4992 17.0692 81.4975 16.9077C82.4959 16.7462 83.4417 16.2077 84.0723 15.3462C84.7553 14.4846 85.0181 13.3538 85.0181 12.2769C85.0181 11.5769 84.913 10.8231 84.6502 10.1231ZM82.7586 13.1923C82.7061 13.6769 82.4959 14.1615 82.2332 14.5385C81.9179 14.9154 81.4975 15.1308 81.0246 15.2385C80.4992 15.2923 79.9737 15.2923 79.5008 15.0769C78.9754 14.8615 78.6076 14.3769 78.3974 13.8923C78.1347 13.3 78.0821 12.6 78.1347 11.9C78.1872 11.2538 78.3448 10.6077 78.7652 10.1231C79.133 9.63846 79.711 9.42308 80.289 9.36923C80.867 9.31539 81.4975 9.47692 81.9704 9.90769C82.3908 10.2846 82.601 10.8231 82.7061 11.3615C82.8637 11.9 82.8637 12.5462 82.7586 13.1923Z" fill="#7D8A99"/>
<path d="M96 9.53077V7.75385C95.3169 7.75385 94.6338 7.75385 93.8982 7.75385C93.8982 6.83846 93.8982 5.92308 93.8982 5.06154C93.2151 5.27692 92.532 5.49231 91.7964 5.70769C91.7964 6.40769 91.7964 7.05385 91.7964 7.75385C90.7455 7.75385 89.7471 7.75385 88.6962 7.75385C88.6962 7.21539 88.6437 6.67692 88.7488 6.13846C88.8013 5.70769 89.064 5.27692 89.4319 5.11539C89.9573 4.9 90.4828 5.06154 91.0082 5.27692C91.0082 4.68462 91.0082 4.03846 91.0082 3.44615C90.0099 3.17692 88.8539 3.23077 87.9081 3.82308C87.3301 4.2 86.9097 4.79231 86.6995 5.49231C86.4893 6.24615 86.5944 7.05385 86.5419 7.80769C86.069 7.80769 85.5435 7.80769 85.0706 7.80769C85.0706 8.4 85.0706 8.93846 85.0706 9.53077C85.5435 9.53077 86.069 9.53077 86.5419 9.53077C86.5419 11.9538 86.5419 14.3769 86.5419 16.8C87.225 16.8 87.9606 16.8 88.6437 16.8C88.6437 14.3769 88.6437 11.9538 88.6437 9.53077C89.6946 9.53077 90.6929 9.53077 91.7438 9.53077C91.7438 11.0923 91.7438 12.6538 91.7438 14.1615C91.7438 14.8615 91.8489 15.6692 92.3218 16.2077C92.7422 16.6923 93.3727 16.9615 94.0033 17.0154C94.6338 17.0692 95.3169 16.9615 95.9475 16.6923V14.9154C95.4745 15.2385 94.844 15.3462 94.3186 15.0769C94.0033 14.9154 93.8982 14.5385 93.8456 14.2154C93.7931 13.6769 93.8456 13.0846 93.7931 12.5462C93.7931 11.5231 93.7931 10.5538 93.7931 9.53077C94.6338 9.47692 95.3169 9.47692 96 9.53077Z" fill="#7D8A99"/>
<path d="M0 10.9846C3.2578 10.9846 6.5156 10.9846 9.7734 10.9846C9.7734 14.3231 9.7734 17.6615 9.7734 21H0V10.9846Z" fill="#7D8A99"/>
<path d="M10.7718 10.9846C14.0296 10.9846 17.2874 10.9846 20.5452 10.9846C20.5452 14.3231 20.5452 17.6615 20.5452 21H10.7718C10.7718 17.6615 10.7718 14.3231 10.7718 10.9846Z" fill="#7D8A99"/>
</svg>
