<svg width="92" height="13" viewBox="0 0 92 13" fill="none" xmlns="http://www.w3.org/2000/svg">
<path d="M60.917 6.69144C62.0274 8.51843 63.085 10.2947 64.1426 12.1217C62.9264 12.1217 61.7101 12.1217 60.3882 12.1217C59.9651 11.6649 59.7536 10.9037 59.3306 10.2947C59.0662 9.83792 59.0133 9.22892 58.4845 8.97517C58.0615 9.38117 57.6913 9.73642 57.1625 10.2439C57.1625 10.7514 57.1625 11.4112 57.1625 12.1724C56.1049 12.1724 55.0474 12.1724 53.9898 12.1724C53.7782 11.3604 53.7254 3.90022 53.884 0.601498C54.9416 0.601498 55.9992 0.601498 57.1625 0.601498C57.2154 1.15974 57.1625 1.81949 57.2154 2.42848C57.2154 3.08823 57.2154 3.79872 57.2154 4.45847C57.2154 5.11821 57.2154 5.72721 57.2154 6.48845C58.3787 5.72721 58.8547 4.50922 59.9651 3.74798C61.1813 3.74798 62.4505 3.74798 63.9311 3.74798C62.9264 4.76297 61.9745 5.67645 60.917 6.69144Z" fill="#7D8A99"/>
<path d="M74.3483 12.1217C73.185 12.1217 72.1274 12.1217 71.0698 12.1217C71.0698 8.26469 71.0698 4.45847 71.0698 0.5C71.5986 0.5 72.1274 0.5 72.6562 0.5C73.185 0.5 73.7666 0.5 74.4012 0.5C74.4012 1.92099 74.4012 3.24048 74.4012 4.55996C74.7184 4.66146 74.8242 4.45847 74.9828 4.35697C76.1462 3.44348 77.4153 3.24048 78.843 3.74798C79.9006 4.15397 80.2708 5.01671 80.3237 5.9302C80.4294 7.96018 80.3765 10.0409 80.3765 12.0709C79.2661 12.0709 78.2085 12.0709 77.098 12.0709C77.098 10.3962 77.098 8.77218 77.098 7.24969C76.8336 6.48845 76.4635 6.08245 75.8289 5.9302C75.4059 5.87945 75.1944 6.28545 74.8242 6.3362C74.5069 6.99594 74.4012 7.65569 74.4012 8.31544C74.4012 9.63492 74.3483 10.8529 74.3483 12.1217Z" fill="#7D8A99"/>
<path d="M82.4917 3.74798C83.7079 3.74798 84.8184 3.74798 85.9289 3.74798L85.9817 3.79872C85.9817 3.84947 86.0346 3.84947 86.0346 3.90022C86.0346 5.57495 86.0346 7.24969 86.0346 8.92443C86.1933 9.22893 86.2461 9.63492 86.6692 9.88867C86.9865 9.88867 87.4095 9.88867 87.7796 9.88867C88.4671 9.43192 88.6257 8.77218 88.6257 8.06169C88.6257 6.6407 88.6257 5.27046 88.6257 3.79872C89.7362 3.79872 90.7938 3.79872 91.8513 3.79872C92.01 4.61071 92.0629 10.1932 91.9042 12.1724C90.9524 12.1724 89.9477 12.1724 88.9959 12.1724C88.7315 11.8679 89.0487 11.4112 88.7843 11.1067C88.52 11.0052 88.52 11.1574 88.3613 11.3604C87.9912 11.9187 87.4095 12.1724 86.722 12.3246C85.8231 12.5276 84.8713 12.5784 83.9723 12.2232C83.1263 11.8679 82.809 11.1574 82.5975 10.3454C82.3331 9.27968 82.3859 8.16318 82.3859 7.09744C82.4917 5.98095 82.4917 4.91522 82.4917 3.74798Z" fill="#7D8A99"/>
<path d="M2.96124 3.74798C2.96124 4.20473 2.96124 4.61072 2.96124 5.16896C3.27852 4.86446 3.49003 4.71222 3.70155 4.45847C4.23034 3.74798 5.07641 3.69723 5.8696 3.49423C6.50415 3.34198 7.13871 3.59573 7.77326 3.79872C8.61933 4.10322 9.09524 4.76297 9.14812 5.57496C9.25388 6.5392 9.46539 7.50344 9.41251 8.46768C9.35964 9.58417 9.41251 10.7514 9.41251 11.8679C9.41251 11.9187 9.41251 11.9187 9.41251 12.0709C8.24917 12.2232 7.08583 12.0709 5.92248 12.1724C5.92248 10.3454 5.92248 8.61994 5.92248 6.89445C5.65808 6.48845 5.34081 6.2347 5.02353 5.98096C4.75914 5.98096 4.6005 5.98096 4.38898 5.98096C3.91307 6.3362 3.49003 6.69145 3.27852 7.45269C3.27852 8.87368 3.27852 10.4469 3.27852 12.1217C2.16805 12.1217 1.11047 12.1217 0 12.1217C0 9.33043 0 6.58995 0 3.74798C0.898948 3.74798 1.85078 3.74798 2.96124 3.74798Z" fill="#7D8A99"/>
<path d="M21.3104 8.72142C20.0941 8.72142 18.9308 8.72142 17.7674 8.72142C16.657 8.72142 15.5465 8.72142 14.436 8.72142C14.5418 9.02592 14.7004 9.22892 14.6476 9.48267C15.758 10.8529 16.657 10.8022 17.6617 9.83792C18.7722 9.88867 19.8826 9.68567 21.046 10.1424C20.3057 11.5634 18.9837 12.2231 17.3973 12.3246C16.7099 12.3754 15.9695 12.3754 15.2821 12.3246C13.3256 12.1724 11.845 11.2082 11.3162 9.12742C11.0518 7.96018 11.1047 6.94519 11.5806 5.9302C12.1094 4.91521 12.9025 4.20471 14.1188 3.79872C15.9167 3.24047 17.5559 3.39272 19.2481 4.10322C20.6758 4.71221 21.1517 5.9302 21.3632 7.30044C21.3104 7.75719 21.3104 8.21393 21.3104 8.72142ZM17.6617 6.0317C16.8685 5.42271 16.0224 5.32121 15.2821 5.77796C14.7533 6.08245 14.5418 6.64069 14.7004 7.35119C15.8109 7.30044 16.9214 7.40194 17.979 7.30044C18.0318 6.7422 17.5559 6.4377 17.6617 6.0317Z" fill="#7D8A99"/>
<path d="M48.5961 9.27968C47.4856 9.02593 46.3223 8.92443 45.2118 8.56918C43.5197 8.06169 43.1495 7.55419 43.2024 5.9302C43.2024 5.8287 43.2024 5.72721 43.2024 5.62571C43.6783 4.35697 44.683 3.90023 45.9521 3.74798C46.4809 3.69723 46.9568 3.49423 47.5385 3.49423C48.2788 3.49423 49.0191 3.69722 49.7065 3.79872C50.7112 3.95097 51.4516 4.66147 51.8217 5.72721C50.817 5.77796 49.8652 6.1332 48.7547 5.98095C48.5961 5.82871 48.3317 5.62571 48.0673 5.37196C47.6442 5.37196 47.1683 5.37196 46.6924 5.37196C46.1107 5.98096 46.1636 6.2347 46.9568 6.48845C47.75 6.79295 48.5961 6.74219 49.4421 6.94519C50.1825 7.14819 50.9228 7.30044 51.5044 7.85869C52.6149 8.97518 52.5091 9.99017 51.6631 11.1067C51.0285 12.0202 49.9709 12.2232 48.9662 12.3754C48.173 12.4769 47.2741 12.4769 46.4809 12.3754C45.3704 12.2232 44.2071 12.0202 43.4139 11.0559C43.1495 10.7007 43.1495 10.2947 42.8322 9.93942C43.4139 9.73642 43.9427 9.88867 44.5244 9.68567C45.0532 9.48267 45.6877 9.63492 46.3223 9.63492C46.4809 10.3962 47.1683 10.4977 47.8029 10.7514C48.2788 10.4977 49.0191 10.5992 49.2306 9.83792C49.072 9.58418 48.7547 9.43192 48.5961 9.27968Z" fill="#7D8A99"/>
<path d="M23.8486 2.17474C25.0119 1.61649 26.0695 1.109 27.18 0.550753C27.2328 1.61649 27.18 2.63149 27.2328 3.74798C27.8674 3.74798 28.4491 3.74798 29.0836 3.74798C29.0836 4.61072 29.0836 5.37196 29.0836 6.2347C28.5548 6.2347 27.9731 6.2347 27.2857 6.2347C27.1271 7.45269 27.2857 8.61993 27.18 9.78717C27.2857 9.88867 27.3915 10.0409 27.5501 10.1932C28.026 10.1932 28.5019 10.1932 29.0836 10.1932C29.0836 10.9037 29.0836 11.5127 29.0836 12.1724C27.9731 12.7814 26.704 12.3246 25.6465 12.4769C24.2716 11.9694 23.8486 11.0559 23.9014 9.78717C23.9014 8.67068 23.9014 7.50344 23.9014 6.38695C23.5313 6.08245 23.1083 6.38695 22.7381 6.1332C22.7381 5.37196 22.7381 4.61072 22.7381 3.74798C23.1083 3.74798 23.4784 3.74798 23.8486 3.74798C23.8486 3.18973 23.8486 2.73298 23.8486 2.17474Z" fill="#7D8A99"/>
<path d="M37.5443 4.10322C37.0684 4.66147 37.0155 5.37196 36.6454 5.98095C36.5925 6.08245 36.4867 6.1332 36.381 6.2347C35.6935 5.82871 35.059 5.9302 34.4773 6.4377C33.6841 8.26468 33.9485 10.1932 33.8956 12.1217C32.7852 12.1217 31.7276 12.1217 30.67 12.1217C30.5114 11.3097 30.4585 5.93021 30.6171 3.74798C31.5689 3.74798 32.5736 3.74798 33.5784 3.74798C33.8428 4.05247 33.5255 4.45847 33.7899 4.86447C34.2658 4.10322 34.9003 3.54498 35.7993 3.49423C36.4338 3.44348 37.0155 3.64648 37.5443 4.10322Z" fill="#7D8A99"/>
<path d="M37.9673 3.74798C39.0778 3.74798 40.1354 3.74798 41.2459 3.74798C41.2459 6.5392 41.2459 9.27967 41.2459 12.1724C40.1883 12.2231 39.1307 12.1724 37.9673 12.1724C37.9673 9.38117 37.9673 6.58995 37.9673 3.74798Z" fill="#7D8A99"/>
<path d="M65.6232 9.02593C66.7866 9.02593 67.897 9.02593 69.1132 9.02593C69.1132 10.0409 69.1132 11.0559 69.1132 12.1217C68.0028 12.2739 66.8394 12.1216 65.6232 12.1724C65.6232 11.1067 65.6232 10.1424 65.6232 9.02593Z" fill="#7D8A99"/>
<path d="M41.2459 2.52998C40.1883 2.52998 39.1307 2.52998 38.0202 2.52998C38.0202 1.87024 38.0202 1.21049 38.0202 0.5C39.0778 0.5 40.1354 0.5 41.2459 0.5C41.2459 1.21049 41.2459 1.87024 41.2459 2.52998Z" fill="#7D8A99"/>
</svg>
