<svg width="102" height="41" viewBox="0 0 102 41" fill="none" xmlns="http://www.w3.org/2000/svg">
<path d="M2.96572 32.9038C2.70092 32.9038 2.33022 32.9038 1.85358 32.9557C1.53583 33.0076 1.27103 33.0076 1.05919 33.0076C1.00623 33.0076 0.953277 33.0076 0.900318 33.0076C0.741439 33.0076 0.582561 33.0076 0.370723 33.0076C0.211844 33.0076 0.105925 32.9557 0.105925 32.9557C0.052966 32.9557 0 33.0076 0 33.1114C0 33.1114 -1.29304e-05 33.1633 0.0529466 33.1633C0.105906 33.1633 0.158859 33.1633 0.211819 33.1633C0.317738 33.1633 0.37071 33.1633 0.423669 33.2152C0.476629 33.2152 0.529582 33.2152 0.582541 33.2671C0.68846 33.319 0.741413 33.4747 0.741413 33.6823C0.794373 33.8899 0.794392 34.2013 0.794392 34.6165C0.794392 34.9798 0.794392 35.6025 0.794392 36.381V38.8203C0.794392 39.3393 0.794373 39.7544 0.741413 39.962C0.741413 40.0139 0.741413 40.0139 0.741413 40.0658C0.741413 40.1177 0.688467 40.1696 0.688467 40.2215L0.63552 40.2734C0.582561 40.3253 0.476629 40.3772 0.423669 40.4291C0.37071 40.4291 0.317738 40.481 0.211819 40.481C0.158859 40.481 0.0529466 40.481 0.0529466 40.5329C0.0529466 40.5329 0 40.5848 0 40.6367C0 40.6886 -1.29304e-05 40.6886 0.0529466 40.6886C0.0529466 40.6886 0.052966 40.6886 0.105925 40.6886C0.105925 40.6886 0.158878 40.6886 0.264797 40.6367C0.370716 40.6367 0.529588 40.5848 0.688467 40.5848C0.741426 40.5848 0.741433 40.5848 0.794392 40.5848C0.900311 40.5848 1.05918 40.5848 1.21806 40.5848C1.4299 40.5848 1.58878 40.5848 1.74766 40.6367C1.90654 40.6367 2.06543 40.6367 2.22431 40.6886C2.27726 40.6886 2.38316 40.7405 2.43612 40.7405C2.48908 40.7405 2.54205 40.7405 2.54205 40.7405C2.54205 40.7405 2.595 40.6886 2.595 40.6367V40.5848C2.595 40.5848 2.59501 40.5329 2.54205 40.5329C2.54205 40.5329 2.48908 40.5329 2.43612 40.5329H2.38318C2.33022 40.5329 2.27726 40.481 2.22431 40.481C2.11839 40.481 2.01247 40.4291 1.95951 40.3772C1.90655 40.3772 1.8006 40.2734 1.8006 40.2215C1.8006 40.1696 1.80062 40.1177 1.74766 40.0658C1.74766 40.0139 1.69471 39.9101 1.69471 39.8063C1.69471 39.5987 1.69469 39.443 1.64173 39.2354C1.64173 39.0798 1.64173 38.7684 1.64173 38.3013V37.6785C1.64173 37.5747 1.64173 37.419 1.64173 37.3152C1.64173 37.2114 1.64173 37.0557 1.64173 36.9C1.74765 36.9 1.95951 36.9519 2.22431 36.9519C2.43614 36.9519 2.64797 37.0038 2.80685 37.0038H2.96572C2.96572 37.0557 3.01868 37.1076 3.07164 37.1076C3.33644 37.5747 3.65419 37.9899 3.91898 38.3532C3.91898 38.3532 3.91898 38.3532 3.91898 38.4051C4.0249 38.5089 4.07787 38.6127 4.13083 38.7165C4.50155 39.1835 4.87225 39.5987 5.24297 39.962C5.61369 40.3253 5.98442 40.5848 6.35514 40.7405C6.72586 40.8962 7.04361 40.9481 7.41433 40.9481H7.73207C7.78503 40.9481 7.78504 40.9481 7.838 40.9481V40.8962C7.838 40.8443 7.78504 40.7924 7.5732 40.7924C7.41432 40.7405 7.2025 40.6367 6.99066 40.5329C6.9377 40.481 6.83177 40.4291 6.77881 40.3772C6.72585 40.3253 6.61992 40.2734 6.56696 40.2215C6.40808 40.1177 6.24922 39.962 6.09034 39.7544C5.82554 39.443 5.45483 39.0279 5.13708 38.5608C4.81932 38.0937 4.44858 37.5228 4.02491 36.8481C4.13083 36.7962 4.28971 36.7443 4.39563 36.6924C4.44859 36.6924 4.50154 36.6405 4.5545 36.6405C4.8193 36.4848 5.03115 36.3291 5.19002 36.1215C5.45482 35.8101 5.61369 35.395 5.61369 34.9798C5.61369 34.5646 5.50779 34.2013 5.29595 33.838C5.08411 33.5266 4.76636 33.2671 4.34268 33.1114C4.28973 33.1114 4.23674 33.0595 4.18378 33.0595C3.86602 32.9557 3.54827 32.8519 3.23052 32.8519C3.1246 32.9038 3.07164 32.9038 2.96572 32.9038ZM60.109 32.9557C59.2616 32.9557 58.5732 33.1114 57.8847 33.4228C57.2492 33.7861 56.7196 34.2532 56.3489 34.8241C55.9782 35.4468 55.7663 36.1215 55.7663 36.9C55.7663 37.6266 55.9252 38.3013 56.3489 38.8722C56.7196 39.4431 57.2492 39.9101 57.8847 40.2215C58.5732 40.5329 59.3146 40.6886 60.162 40.6886C60.4798 40.6886 60.7445 40.6367 61.0093 40.6367C61.2741 40.6367 61.5919 40.5848 62.0156 40.481C62.4393 40.3772 62.757 40.3772 62.9688 40.3253C63.0218 40.3253 63.0748 40.3253 63.1277 40.2734C63.1807 40.2734 63.1807 40.2734 63.2336 40.2734C63.2336 40.2734 63.2336 40.2734 63.2336 40.2215C63.2336 40.2215 63.2336 40.1696 63.1807 40.1177C63.1277 40.1177 63.1277 40.0658 63.1277 40.0658C63.0748 40.0139 63.0748 39.9101 63.0748 39.7025C63.0748 39.4949 63.0748 39.2354 63.0748 38.9241V38.5089C63.0748 38.0937 63.0748 37.7823 63.0748 37.6266C63.0748 37.419 63.1277 37.3152 63.1807 37.2633C63.1807 37.2633 63.2866 37.1595 63.3925 37.1595C63.4984 37.1595 63.5514 37.1076 63.5514 37.0557C63.5514 37.0038 63.5514 37.0038 63.4984 37.0038C63.4454 37.0038 63.3396 37.0038 63.3396 37.0038C63.2866 37.0038 63.2336 37.0038 63.1807 37.0038C63.1277 37.0038 63.0218 37.0038 62.9159 37.0038C62.8099 37.0038 62.704 37.0038 62.6511 37.0038H62.4922C62.1744 37.0038 61.8037 37.0038 61.486 37.0038C61.1682 37.0038 61.0093 37.0038 61.0093 37.0038C60.9564 37.0038 60.9034 37.0038 60.9034 37.0557C60.9034 37.1076 60.9034 37.1595 60.9564 37.1595C60.9564 37.1595 61.1153 37.1595 61.2741 37.1595C61.433 37.1595 61.5919 37.2114 61.7508 37.2114C61.9097 37.2114 62.0156 37.2633 62.0685 37.3152C62.1215 37.3671 62.1744 37.4709 62.1744 37.6266C62.1744 37.7304 62.1744 37.9899 62.1744 38.3532V38.6646C62.1744 39.0797 62.1744 39.3392 62.1744 39.5468C62.1744 39.7025 62.1744 39.8582 62.1215 39.9101C62.0685 39.962 61.9626 40.0658 61.8037 40.1177C61.6449 40.1696 61.433 40.2734 61.1682 40.3253C60.9034 40.3772 60.5857 40.3772 60.2679 40.3772C59.6324 40.3772 58.9968 40.2215 58.5202 39.9101C57.9906 39.5987 57.567 39.1317 57.3022 38.5608C56.9844 37.9899 56.8785 37.3671 56.8785 36.6924C56.8785 36.0177 56.9844 35.3949 57.3022 34.8241C57.567 34.3051 57.9906 33.8899 58.4673 33.5785C58.9439 33.2671 59.5264 33.1633 60.109 33.1633C61.2741 33.1633 62.0685 33.5266 62.5981 34.357C62.6511 34.4089 62.704 34.5127 62.757 34.6165C62.757 34.7203 62.81 34.7722 62.8629 34.7722C62.9159 34.7722 62.9688 34.7203 62.9688 34.6684C62.9688 34.6684 62.9688 34.5646 62.9159 34.357C62.8629 34.2013 62.8629 33.9937 62.81 33.7861C62.81 33.5785 62.81 33.319 62.81 33.0076C62.81 32.9557 62.8099 32.9038 62.704 32.9038C62.704 32.9038 62.5981 32.9557 62.5452 33.0595C62.4922 33.1114 62.3863 33.1633 62.3333 33.1633C62.2804 33.1633 62.2274 33.1633 62.0685 33.1114C61.9096 33.0595 61.7507 33.0076 61.6448 33.0076C61.5389 33.0076 61.3271 32.9557 61.1152 32.9038C60.5856 32.9557 60.3738 32.9557 60.109 32.9557ZM2.7539 33.1633C3.12462 33.1633 3.44235 33.2152 3.76011 33.3709C3.81307 33.3709 3.86604 33.4228 3.86604 33.4228C3.86604 33.4228 3.86602 33.4228 3.91898 33.4228C3.97194 33.4747 4.02493 33.5266 4.07789 33.5785C4.13085 33.6304 4.13082 33.6304 4.18378 33.6823C4.5545 34.0456 4.71338 34.5127 4.71338 35.1355C4.71338 35.6025 4.5545 36.0177 4.18378 36.3291C3.81306 36.5886 3.33643 36.7443 2.70092 36.7443C2.43612 36.7443 2.06543 36.6924 1.69471 36.6405C1.69471 34.7722 1.74764 33.7342 1.8006 33.5266C1.8006 33.4228 1.85359 33.3709 1.95951 33.319C2.01247 33.319 2.01244 33.2671 2.0654 33.2671C2.22428 33.1633 2.43614 33.1633 2.7539 33.1633ZM30.2399 34.6684C30.1869 34.6684 30.1869 34.6684 30.2399 34.6684C30.1869 34.7203 30.1869 34.7203 30.1869 34.7722V34.9279C30.1339 35.0836 30.081 35.2393 30.028 35.4468C29.9751 35.6544 29.9221 35.7063 29.9221 35.7582C29.9221 35.7582 29.9751 35.8101 30.028 35.8101C30.028 35.8101 30.028 35.7582 30.028 35.7063C30.028 35.6544 30.081 35.6025 30.081 35.5506C30.081 35.4987 30.1339 35.4987 30.1339 35.4468C30.1339 35.4468 30.1339 35.4468 30.1869 35.4468C30.1869 35.3949 30.2928 35.343 30.3987 35.2911C30.5046 35.2392 30.6636 35.2393 30.8224 35.1874C30.9813 35.1874 31.1931 35.1874 31.4579 35.1874C31.5638 35.1874 31.6698 35.1874 31.7227 35.1874C31.7757 35.1874 31.8286 35.1874 31.9346 35.1874C31.9875 35.1874 32.0934 35.1874 32.1994 35.1874C32.3053 35.1874 32.3582 35.1874 32.4642 35.1874C32.4642 35.343 32.5171 35.6025 32.5171 35.9139C32.5171 36.2253 32.5171 36.6924 32.5171 37.2633C32.5171 37.4709 32.5171 37.6785 32.5171 37.7304C32.5171 37.8342 32.5171 37.938 32.5171 38.0418C32.5171 38.6646 32.5171 39.1836 32.5171 39.5468C32.5171 39.6506 32.5171 39.7544 32.5171 39.8582C32.5171 40.1696 32.5171 40.3772 32.4642 40.4291C32.4642 40.4291 32.4112 40.4291 32.4112 40.481C32.3583 40.5329 32.3053 40.5329 32.2523 40.5329C32.1994 40.5329 32.0934 40.5329 31.9875 40.5848C31.9346 40.5848 31.8816 40.5848 31.8287 40.5848C31.7757 40.5848 31.7757 40.5848 31.7227 40.5848C31.6698 40.5848 31.6698 40.6367 31.6698 40.6886C31.6698 40.6886 31.6698 40.6886 31.6698 40.7405C31.6698 40.7405 31.6698 40.7405 31.7227 40.7405C31.8816 40.7405 32.0405 40.6886 32.1464 40.6886C32.3053 40.6886 32.4112 40.6886 32.5171 40.6367C32.7289 40.6367 32.9408 40.6367 33.0996 40.6367C33.3115 40.6367 33.5233 40.6367 33.7881 40.6367C33.8941 40.6367 34 40.6367 34.0529 40.6367C34.1059 40.6367 34.1588 40.6367 34.1588 40.6367C34.1588 40.6367 34.1588 40.5848 34.1588 40.5329C34.1588 40.5329 34.1588 40.5329 34.1588 40.481C34.1588 40.481 34.1589 40.4291 34.1059 40.4291H34.0529C33.947 40.4291 33.8411 40.4291 33.7881 40.4291C33.7352 40.4291 33.6293 40.4291 33.5763 40.3772C33.5233 40.3772 33.5234 40.3772 33.4704 40.3772C33.4174 40.3253 33.3645 40.3253 33.3115 40.2734C33.3115 40.2215 33.2586 40.0658 33.2586 39.8063C33.2586 39.5987 33.2586 39.2873 33.2586 38.9241C33.2586 38.5608 33.2586 37.9899 33.2586 37.2633C33.2586 36.9 33.2586 36.4848 33.2586 36.0696C33.2586 35.6544 33.2586 35.2911 33.2586 35.0835C33.4174 35.0835 33.5233 35.0835 33.6292 35.0835C33.7352 35.0835 33.8411 35.0835 34 35.0835C34.5296 35.0835 34.9003 35.0836 35.1121 35.1874C35.324 35.2393 35.4299 35.3431 35.4299 35.4987C35.4299 35.4987 35.4299 35.5506 35.4299 35.6025V35.7063C35.4299 35.7063 35.4829 35.7063 35.5358 35.7063C35.5358 35.7063 35.5888 35.7063 35.5888 35.6025C35.5888 35.5506 35.6417 35.4987 35.6417 35.3949C35.6417 35.2911 35.6947 35.1873 35.7476 35.0835C35.7476 35.0317 35.7476 35.0317 35.7476 34.9798C35.8006 34.876 35.8006 34.7722 35.8536 34.7203L35.8006 34.6684C35.8006 34.7203 35.5358 34.7203 35.0062 34.7203C34.8474 34.7203 34.6885 34.7203 34.5296 34.7203C34.3707 34.7203 34.2648 34.7203 34.0529 34.7203C33.8941 34.7203 33.6822 34.7203 33.4704 34.7203C33.2586 34.7203 32.9408 34.7203 32.6231 34.7203C32.5171 34.7203 32.4642 34.7203 32.4112 34.7203C32.3583 34.7203 32.2523 34.7203 32.2523 34.7203C32.0934 34.7203 31.8816 34.7203 31.6168 34.7203C31.352 34.7203 31.1931 34.7203 31.1402 34.7203C30.8224 34.7203 30.6106 34.6684 30.5047 34.6165L30.4517 34.5646C30.2928 34.6684 30.2399 34.6684 30.2399 34.6684ZM89.9782 34.7203C89.7663 34.7203 89.5545 34.7722 89.3956 34.7722H89.2897C89.2368 34.7722 89.1838 34.7722 89.1838 34.8241C89.0778 34.876 88.9719 34.876 88.866 34.9279C88.4953 35.0836 88.1246 35.2911 87.8598 35.5506C87.595 35.8101 87.3302 36.1215 87.1713 36.5367C87.0125 36.9 86.9065 37.2633 86.9065 37.6785C86.9065 38.0937 86.9594 38.5089 87.1183 38.8722C87.2772 39.1836 87.4361 39.4949 87.6479 39.7544C87.7009 39.8063 87.7009 39.8063 87.7539 39.8582C88.0187 40.1177 88.3894 40.3772 88.7601 40.5329C88.866 40.5848 88.9719 40.5848 89.0779 40.6367C89.1308 40.6367 89.1837 40.6886 89.2367 40.6886C89.5015 40.7405 89.7134 40.7924 89.9782 40.7924C90.0311 40.7924 90.137 40.7924 90.19 40.7924C90.7196 40.7924 91.1962 40.6367 91.6199 40.3772C92.0965 40.1177 92.4673 39.7544 92.7321 39.2873C92.9969 38.8722 93.1028 38.4051 93.1557 37.938C93.1557 37.8861 93.1557 37.7823 93.1557 37.7304C93.1557 37.1595 93.0498 36.6405 92.785 36.2253C92.5202 35.7582 92.1495 35.3949 91.6729 35.1355C91.3022 34.9279 90.9314 34.8241 90.5607 34.7722C90.5077 34.7722 90.4019 34.7722 90.3489 34.7722C90.19 34.7203 90.137 34.7203 89.9782 34.7203C90.0311 34.7203 90.0311 34.7203 89.9782 34.7203ZM100.199 34.7203C100.146 34.7203 100.146 34.7203 100.146 34.7722C100.146 34.7722 100.146 34.7722 100.146 34.8241C100.146 34.8241 100.199 34.876 100.305 34.876C100.411 34.876 100.517 34.9279 100.57 34.9279C100.676 34.9798 100.782 35.1354 100.835 35.343C100.835 35.4987 100.888 35.8101 100.888 36.1215C100.888 36.4329 100.888 36.9519 100.888 37.6266V38.1456C100.888 38.5608 100.888 38.9241 100.888 39.2354H100.835C100.093 38.6127 99.5639 38.0937 99.1402 37.7304C98.9283 37.5747 98.7165 37.3671 98.5576 37.2114C98.4517 37.1076 98.3458 37.0557 98.2928 36.9519C98.1869 36.8481 98.134 36.7962 98.028 36.6924C97.6573 36.381 97.3395 36.0177 97.0218 35.7063C96.704 35.3949 96.4392 35.0835 96.1745 34.7722C95.9626 34.7722 95.7507 34.7722 95.5919 34.7722C95.5389 34.7722 95.433 34.7722 95.2741 34.7722C95.1682 34.7722 95.1152 34.7722 95.0622 34.7722C95.0093 34.7722 95.0093 34.7722 95.0093 34.8241C95.0093 34.8241 95.0623 34.876 95.2212 34.9279C95.38 34.9279 95.4859 35.0317 95.5919 35.1355C95.6448 35.1873 95.6978 35.343 95.7507 35.5506C95.8037 35.7582 95.8037 36.0177 95.8037 36.3291C95.8037 36.5367 95.8037 36.8481 95.8037 37.2633C95.8037 37.419 95.8037 37.5228 95.8037 37.6785V38.3532C95.8037 38.5089 95.8037 38.7165 95.8037 39.0279C95.8037 39.3392 95.8037 39.5468 95.8037 39.6506V40.0658C95.8037 40.2215 95.8037 40.3253 95.7507 40.3772V40.4291C95.7507 40.4291 95.7508 40.4291 95.6978 40.481C95.6448 40.481 95.6448 40.5329 95.5919 40.5329C95.5389 40.5329 95.433 40.5848 95.327 40.5848C95.2741 40.5848 95.2212 40.6367 95.1682 40.6367C95.1682 40.6367 95.1682 40.6367 95.1682 40.6886C95.1682 40.6886 95.2211 40.6886 95.2741 40.6886C95.4859 40.6886 95.6978 40.6886 95.8566 40.6367C96.0155 40.6367 96.1744 40.6367 96.2803 40.6367C96.3863 40.6367 96.5452 40.6367 96.757 40.6367C96.8629 40.6367 96.9159 40.6367 96.9688 40.6367C97.0218 40.6367 97.0747 40.6367 97.0747 40.6367H97.1277C97.1277 40.6367 97.1277 40.6367 97.1806 40.6367V40.5848C97.1806 40.5329 97.1277 40.5329 97.0747 40.5329C97.0218 40.5329 96.9159 40.5329 96.8099 40.5329C96.704 40.5329 96.5452 40.481 96.4922 40.481C96.4392 40.481 96.3333 40.4291 96.2803 40.3772C96.2803 40.3253 96.2274 40.2215 96.2274 40.0658C96.2274 39.9101 96.1745 39.7025 96.1745 39.3912C96.1745 39.1317 96.1745 38.7684 96.1745 38.4051C96.1745 38.1975 96.1745 37.9899 96.1745 37.6785C96.1745 37.3671 96.1745 37.1076 96.1745 36.7443V35.9139H96.2803C96.3863 36.0177 96.651 36.2253 96.9158 36.4848C97.2336 36.7443 97.4984 37.0038 97.8162 37.2633C98.081 37.5228 98.4517 37.8342 98.8754 38.1975C99.299 38.5608 99.6698 38.976 100.146 39.3393C100.358 39.5468 100.517 39.7544 100.676 39.9101C100.835 40.0658 100.941 40.2215 100.994 40.3253C101.047 40.4291 101.153 40.5329 101.206 40.5848C101.206 40.6367 101.259 40.6367 101.259 40.6886C101.259 40.6886 101.259 40.6886 101.312 40.6886V40.6367C101.312 40.6367 101.312 40.5848 101.312 40.5329C101.312 40.5329 101.312 40.5329 101.312 40.481C101.312 40.481 101.312 40.2215 101.312 39.8582C101.312 39.4949 101.312 39.2354 101.312 39.1835C101.312 39.1316 101.312 38.976 101.312 38.7165V37.5747C101.312 36.6924 101.311 36.0696 101.364 35.7063C101.364 35.343 101.47 35.1354 101.576 35.0316C101.576 35.0316 101.629 34.9798 101.682 34.9798H101.788C101.788 34.9798 101.788 34.9798 101.841 34.9798H101.894C101.894 34.9798 101.894 34.9798 101.947 34.9798C101.947 34.9798 102 34.9798 102 34.9279C102 34.876 101.947 34.876 101.894 34.876C101.841 34.876 101.788 34.876 101.629 34.876C101.523 34.876 101.417 34.876 101.312 34.876C101.259 34.876 101.206 34.876 101.206 34.876C101.1 34.876 100.941 34.876 100.782 34.8241C100.358 34.7203 100.199 34.7203 100.199 34.7203ZM46.5514 34.7203C46.4984 34.7203 46.4455 34.7203 46.3925 34.7203C46.3396 34.7203 46.2866 34.7203 46.1807 34.7203C46.0218 34.7203 45.8629 34.7722 45.704 34.7722C45.5452 34.7722 45.3863 34.7722 45.2274 34.8241C45.1744 34.8241 45.1215 34.8241 45.0685 34.8241C45.0156 34.8241 44.9626 34.8241 44.9096 34.8241C44.8037 34.8241 44.6449 34.8241 44.539 34.8241C44.3801 34.8241 44.3271 34.8241 44.3271 34.8241C44.2741 34.8241 44.2211 34.8241 44.2211 34.876C44.2211 34.876 44.2211 34.876 44.2211 34.9279C44.2211 34.9279 44.2212 34.9279 44.2742 34.9279C44.2742 34.9279 44.3271 34.9279 44.433 34.9798C44.486 34.9798 44.5389 34.9798 44.5919 34.9798C44.6449 34.9798 44.6448 34.9797 44.6978 35.0316C44.7507 35.0835 44.7508 35.1355 44.8037 35.2393C44.8037 35.2912 44.8037 35.2911 44.8037 35.343C44.8567 35.4987 44.8567 35.7582 44.8567 36.0177C44.8567 36.2772 44.8567 36.7443 44.8567 37.3671V39.2354C44.8567 39.6506 44.8567 39.962 44.8037 40.1177C44.7508 40.2734 44.6978 40.3772 44.539 40.4291C44.486 40.4291 44.433 40.481 44.38 40.481H44.2742V40.5848C44.2742 40.5848 44.2741 40.6367 44.3271 40.6367C44.3271 40.6367 44.3271 40.6367 44.38 40.6367C44.38 40.6367 44.433 40.6367 44.4859 40.6367C44.5389 40.6367 44.6448 40.6367 44.7507 40.6367C44.8037 40.6367 44.8037 40.6367 44.8567 40.6367C44.9626 40.6367 45.0685 40.6367 45.1744 40.6367C45.3333 40.6367 45.4393 40.6367 45.5981 40.6886C45.5981 40.6886 45.6511 40.6886 45.704 40.6886C45.757 40.6886 45.757 40.6886 45.8099 40.6886C45.8629 40.6886 45.9159 40.6886 45.9688 40.7405C46.0747 40.7405 46.1807 40.7924 46.1807 40.7924C46.1807 40.7924 46.1807 40.7924 46.2336 40.7924C46.2336 40.7924 46.2336 40.7924 46.2336 40.7405V40.6886H46.0747C46.0747 40.6886 46.0218 40.6886 45.9688 40.6886C45.9159 40.6886 45.8629 40.6367 45.757 40.6367C45.704 40.6367 45.704 40.5848 45.6511 40.481C45.6511 40.4291 45.6511 40.3253 45.5981 40.1696C45.5981 40.0139 45.5981 39.9101 45.5981 39.7544C45.5981 39.6506 45.5981 39.3912 45.5981 39.0798V38.6127C45.5981 38.5089 45.5981 38.4051 45.5981 38.3532C45.5981 38.3013 45.5981 38.1975 45.5981 38.0418C45.7041 38.0418 45.8629 38.0418 46.0218 38.0418C46.1807 38.0418 46.3396 38.0418 46.4455 38.0418H46.5514C46.5514 38.0937 46.6043 38.0937 46.6043 38.1456C46.6043 38.1456 46.6044 38.1975 46.6573 38.1975C46.7632 38.4051 46.8692 38.5608 46.9751 38.7165C47.134 38.9241 47.2398 39.1317 47.3987 39.3393C47.6635 39.7025 47.9284 40.0139 48.2461 40.2734C48.405 40.3772 48.5109 40.5329 48.6698 40.5848C48.7227 40.5848 48.7228 40.6367 48.7757 40.6367C48.8816 40.6886 48.9875 40.7405 49.0935 40.7924C49.3582 40.8962 49.623 41 49.8878 41H50.1526V40.9481C50.1526 40.8962 50.0997 40.8962 49.9408 40.8443C49.7819 40.7924 49.623 40.7405 49.4641 40.6367C49.2523 40.481 49.0405 40.3253 48.7757 40.0658C48.5639 39.8582 48.2991 39.5468 48.0343 39.1835C47.8224 38.8203 47.5047 38.4051 47.1869 37.8861C47.2928 37.8342 47.3988 37.8342 47.4517 37.7823C47.5047 37.7823 47.5576 37.7304 47.5576 37.7304L47.6635 37.6785C47.7165 37.6785 47.7165 37.6266 47.7695 37.6266C47.8754 37.5747 47.9813 37.4709 48.0343 37.3671C48.2461 37.1076 48.352 36.8481 48.352 36.4848C48.352 36.1734 48.2461 35.862 48.0872 35.6544C48.0343 35.6025 47.9813 35.5506 47.9283 35.4987C47.9283 35.4468 47.8754 35.4468 47.8754 35.3949C47.7165 35.2911 47.5576 35.1873 47.3987 35.0835C47.1339 34.9798 46.8162 34.876 46.4455 34.876C46.6573 34.7203 46.6043 34.7203 46.5514 34.7203ZM17.4237 34.7722C17.2648 34.7722 17.1059 34.7722 17 34.7722C16.9471 34.7722 16.8411 34.7722 16.7882 34.8241C16.4174 34.876 16.0997 34.9798 15.7819 35.1355C15.3053 35.3949 14.8816 35.7582 14.6168 36.2253C14.352 36.6405 14.1931 37.1595 14.1931 37.7304C14.1931 38.1456 14.2461 38.5608 14.405 38.9241C14.5639 39.2873 14.7757 39.5987 15.0934 39.9101C15.3582 40.1696 15.7289 40.3772 16.1526 40.5329C16.2056 40.5329 16.2586 40.5848 16.3115 40.5848C16.4704 40.6367 16.6293 40.6886 16.7882 40.6886C16.8411 40.6886 16.894 40.6886 16.947 40.6886C17.1059 40.6886 17.2648 40.7405 17.4766 40.7405C17.5296 40.7405 17.5825 40.7405 17.6355 40.7405C17.7944 40.7405 17.9533 40.7405 18.0592 40.6886C18.2181 40.6886 18.4299 40.5848 18.6417 40.5329C18.8006 40.481 19.0125 40.4291 19.2243 40.3772C19.2243 40.2734 19.2772 40.1177 19.3302 40.0139C19.3302 39.962 19.3832 39.9101 19.3832 39.8582C19.3832 39.8063 19.4361 39.7544 19.4361 39.7025C19.4891 39.4949 19.542 39.3393 19.542 39.3393C19.542 39.3393 19.542 39.3393 19.4891 39.3393H19.4361C19.4361 39.3393 19.4362 39.3911 19.3832 39.443C19.3832 39.4949 19.3302 39.5468 19.2772 39.6506C19.1184 39.962 18.9065 40.1696 18.6417 40.3253C18.5358 40.3772 18.4299 40.4291 18.324 40.4291C18.271 40.4291 18.218 40.4291 18.218 40.481C18.1121 40.481 18.0592 40.5329 17.9532 40.5329C17.9003 40.5329 17.8474 40.5329 17.7944 40.5329C17.7414 40.5329 17.6885 40.5329 17.6355 40.5329C17.3177 40.5329 17.053 40.481 16.7882 40.3772C16.7352 40.3772 16.6822 40.3253 16.6293 40.3253C16.5233 40.2734 16.4174 40.2215 16.3115 40.1696C15.9408 39.962 15.6231 39.5987 15.4112 39.1317C15.1994 38.7165 15.0934 38.1975 15.0934 37.6785C15.0934 37.419 15.0935 37.1595 15.1464 36.9519C15.1464 36.9 15.1994 36.8481 15.1994 36.7962C15.2523 36.6405 15.3053 36.4848 15.4112 36.3291C15.5171 36.0696 15.676 35.862 15.8878 35.6544C15.9408 35.6025 15.9408 35.6025 15.9938 35.5506C16.0467 35.4987 16.1527 35.4468 16.2586 35.3949C16.6293 35.1873 17 35.0316 17.4766 35.0316C17.6884 35.0316 17.9532 35.0836 18.218 35.1355C18.4828 35.1873 18.7477 35.2911 18.9595 35.3949C19.1184 35.4468 19.1713 35.5506 19.2243 35.6025C19.2243 35.6544 19.2772 35.7582 19.2772 35.9139V36.0696C19.2772 36.1215 19.2772 36.1734 19.3302 36.1734C19.3831 36.1734 19.3832 36.1734 19.3832 36.1215C19.3832 36.0696 19.3832 36.0177 19.3832 35.9139C19.3832 35.8101 19.3832 35.7063 19.4361 35.6025C19.4891 35.4987 19.4891 35.3949 19.4891 35.2911C19.542 35.0835 19.542 35.0316 19.542 35.0316C19.542 35.0316 19.542 34.9798 19.4891 34.9798H19.4361C19.3832 34.9798 19.3302 34.9798 19.2772 34.9798C19.2772 34.9798 19.1184 34.9798 18.9595 34.9279C18.8536 34.9279 18.8006 34.876 18.7476 34.876C18.6947 34.876 18.6418 34.8241 18.5888 34.8241C18.4829 34.8241 18.3769 34.7722 18.218 34.7722C17.8473 34.7722 17.6355 34.7722 17.4237 34.7722ZM21.6075 34.7722H21.5545V34.8241C21.6075 34.8241 21.6075 34.8241 21.6604 34.8241H21.7664C21.8193 34.8241 21.8723 34.8241 21.8723 34.876C21.9782 34.9279 22.0312 35.0317 22.0312 35.1355C22.0312 35.2392 22.0312 35.4468 22.0312 35.7063V35.8101C22.0312 36.381 22.0312 36.7443 22.0312 36.9519C22.0312 37.1595 22.0312 37.3152 22.0312 37.5228C22.0312 39.2874 21.9782 40.2215 21.8193 40.3253C21.7664 40.3772 21.7134 40.3772 21.6075 40.4291C21.5545 40.4291 21.5545 40.4291 21.5016 40.4291C21.3957 40.4291 21.3427 40.481 21.3427 40.5329V40.5848H21.3956C21.3956 40.5848 21.4486 40.5848 21.5016 40.5848C21.5016 40.5848 21.5545 40.5848 21.6075 40.5848C21.6604 40.5848 21.7134 40.5848 21.7664 40.5848C21.9252 40.5848 22.0841 40.5329 22.243 40.5329C22.3489 40.5329 22.4548 40.5329 22.6137 40.5329C22.6667 40.5329 22.6666 40.5329 22.7196 40.5329C22.8785 40.5329 23.0374 40.5329 23.0904 40.5329C23.1433 40.5329 23.1433 40.5329 23.1963 40.5329H23.2492C23.2492 40.5329 23.3021 40.5329 23.3021 40.481V40.4291C23.3021 40.4291 23.3022 40.3772 23.2492 40.3772H23.1963C23.1433 40.3772 23.0904 40.3253 23.0904 40.3253C23.0374 40.3253 23.0374 40.2734 22.9844 40.2734C22.9314 40.2734 22.9315 40.2215 22.8785 40.2215C22.8785 40.2215 22.8785 40.2215 22.8256 40.1696C22.7726 40.1177 22.8256 40.1696 22.8256 40.1177C22.7726 40.0139 22.7725 39.8582 22.7725 39.6506V37.7823C22.7725 37.7304 22.7725 37.6785 22.7725 37.6266C22.8255 37.6266 22.8785 37.6266 22.9844 37.6266H26.4268C26.5327 37.6266 26.6386 37.6266 26.6386 37.6266C26.6916 37.6266 26.6916 37.6785 26.6916 37.7823V37.8342C26.6916 38.2494 26.6916 38.5608 26.6916 38.7165C26.6916 39.443 26.6386 39.9101 26.5327 40.1177C26.5327 40.1696 26.4797 40.1696 26.4797 40.2215C26.4797 40.2215 26.4797 40.2215 26.4268 40.2734C26.4268 40.2734 26.3738 40.3253 26.3209 40.3253C26.3209 40.3253 26.2679 40.3253 26.2149 40.3253H26.162C26.162 40.3253 26.109 40.3253 26.109 40.3772H26.0561V40.4291C26.0561 40.4291 26.0561 40.4291 26.109 40.4291C26.109 40.4291 26.109 40.4291 26.162 40.4291C26.162 40.4291 26.162 40.4291 26.2149 40.4291C26.2679 40.4291 26.2679 40.4291 26.3209 40.4291C26.3209 40.4291 26.3738 40.4291 26.4268 40.4291C26.5327 40.4291 26.5856 40.4291 26.6916 40.4291C26.7445 40.4291 26.7446 40.4291 26.7975 40.4291C26.9034 40.4291 27.0094 40.4291 27.0623 40.4291C27.1682 40.4291 27.2741 40.4291 27.433 40.481C27.486 40.481 27.539 40.481 27.5919 40.481C27.6449 40.481 27.6978 40.481 27.7508 40.481C27.8037 40.481 27.8567 40.481 27.8567 40.481H27.9097V40.4291C27.9097 40.4291 27.8567 40.3772 27.8037 40.3772C27.6978 40.3772 27.6448 40.3253 27.5389 40.2734C27.4859 40.2215 27.433 40.1696 27.433 40.0139C27.3801 39.9101 27.3801 39.8063 27.3801 39.6506C27.3801 39.4949 27.3801 39.2354 27.3801 38.9241V37.8861C27.3801 37.3152 27.3801 36.9 27.3801 36.6405C27.3801 36.381 27.3801 36.1215 27.3801 35.8101C27.3801 35.4987 27.3801 35.2911 27.433 35.1874C27.433 35.0836 27.4859 34.9798 27.5389 34.9279C27.5389 34.9279 27.5389 34.9279 27.5389 34.876C27.5389 34.876 27.539 34.876 27.5919 34.8241L27.6449 34.7722C27.6449 34.7722 27.7507 34.7203 27.8037 34.7203C27.8567 34.7203 27.8567 34.7203 27.9097 34.7203V34.6684C27.9097 34.6684 27.9097 34.6165 27.8567 34.6165C27.8567 34.6165 27.7507 34.6165 27.5389 34.6165C27.433 34.6165 27.38 34.6165 27.2741 34.6165C27.1682 34.6165 27.1152 34.6165 27.0093 34.6165C26.9034 34.6165 26.7975 34.6165 26.6386 34.6165C26.5857 34.6165 26.5327 34.6165 26.4797 34.6165C26.3208 34.6165 26.162 34.6165 26.162 34.6165V34.6684C26.162 34.6684 26.215 34.6684 26.2679 34.6684C26.3209 34.6684 26.3738 34.7203 26.4797 34.7203L26.5327 34.7722C26.5857 34.8241 26.6386 34.876 26.6916 34.9798C26.6916 35.0317 26.7445 35.2393 26.7445 35.4468V37.0557C26.7445 37.1076 26.7445 37.1595 26.6916 37.2114C26.6916 37.2114 26.6916 37.2114 26.6386 37.2633C26.5857 37.2633 26.5327 37.2633 26.4268 37.2633H23.0373C22.9314 37.2633 22.8255 37.2633 22.7725 37.2633C22.7725 37.2633 22.7196 37.2114 22.7196 37.1076V37.0038C22.7196 36.7962 22.7196 36.5886 22.7196 36.4329C22.7196 36.0696 22.7196 35.6544 22.7725 35.2393C22.7725 35.0317 22.8255 34.9279 22.9315 34.8241C22.9844 34.7722 23.0373 34.7722 23.0373 34.7722H23.0904C23.1433 34.7722 23.1433 34.7722 23.1963 34.7722H23.2492C23.2492 34.7722 23.3022 34.7722 23.3552 34.7722C23.4081 34.7722 23.4081 34.7722 23.4081 34.7722L23.461 34.7203C23.461 34.6684 23.4611 34.6684 23.4081 34.6684C23.4081 34.6684 23.3022 34.6684 23.1433 34.6684C22.9844 34.6684 22.8785 34.6684 22.7725 34.6684C22.6666 34.6684 22.5607 34.6684 22.4019 34.6684C22.2959 34.6684 22.137 34.6684 21.9782 34.6684C21.7663 34.8241 21.6604 34.7722 21.6075 34.7722ZM74.0903 34.8241C73.9314 34.8241 73.7726 34.876 73.5607 34.876C73.4548 34.876 73.4018 34.876 73.2959 34.9279C73.243 34.9279 73.137 34.9798 73.0841 34.9798C72.9781 34.9798 72.8722 34.9798 72.7663 34.9798C72.7134 34.9798 72.6075 34.9798 72.4486 34.9798C72.3427 34.9798 72.2367 34.9798 72.1308 34.9798C71.972 34.9798 71.919 34.9797 71.919 35.0316C71.919 35.0316 71.919 35.0317 71.919 35.0835H72.0249C72.0778 35.0835 72.1308 35.0835 72.1838 35.0835C72.2367 35.0835 72.2897 35.1355 72.3427 35.1355C72.3956 35.1873 72.4486 35.2911 72.4486 35.4468C72.5015 35.6025 72.5015 35.8101 72.5015 36.1215C72.5015 36.381 72.5015 36.7962 72.5015 37.3671V39.4949C72.5015 39.8582 72.5015 40.1177 72.4486 40.2215C72.4486 40.3253 72.3427 40.4291 72.1838 40.481C72.1838 40.481 72.1308 40.481 72.0249 40.5329C71.9719 40.5329 71.866 40.5848 71.866 40.5848C71.866 40.6367 71.866 40.6367 71.919 40.6367H72.0249C72.0778 40.6367 72.0779 40.6367 72.1308 40.6367C72.2367 40.6367 72.3956 40.6367 72.5545 40.6367C72.7133 40.6367 72.8723 40.5848 72.9782 40.5848C73.137 40.5848 73.2429 40.5848 73.3489 40.6367C73.4018 40.6367 73.5078 40.6367 73.6667 40.6367C73.7196 40.6367 73.7726 40.6367 73.8255 40.6367C73.9844 40.6367 74.1433 40.6367 74.3022 40.6367C74.3551 40.6367 74.4081 40.6367 74.4611 40.6367C74.514 40.6367 74.5669 40.6367 74.6199 40.6367C74.6729 40.6367 74.7258 40.6367 74.7788 40.6367C75.1495 40.5848 75.5202 40.5329 75.838 40.4291C75.9439 40.3772 76.0498 40.3253 76.1557 40.3253C76.2087 40.3253 76.2617 40.2734 76.3146 40.2734C76.5794 40.1696 76.7913 40.0139 76.9501 39.8063C77.2679 39.5468 77.4797 39.2355 77.6916 38.8722C77.8505 38.5089 77.9034 38.0937 77.9034 37.6785C77.9034 37.2114 77.7975 36.7962 77.5856 36.381C77.3738 35.9658 77.0031 35.6025 76.5794 35.2911C76.3676 35.1354 76.1557 35.0317 75.8909 34.9279C75.785 34.876 75.7321 34.876 75.6261 34.8241C75.4673 34.7722 75.2554 34.7722 75.0436 34.7203C75.0436 34.7203 75.0436 34.7203 74.9907 34.7203C74.8318 34.7203 74.6199 34.7203 74.4611 34.7203C74.4081 34.8241 74.2492 34.8241 74.0903 34.8241ZM11.8629 34.8241C11.8099 34.8241 11.757 34.8241 11.704 34.8241C11.6511 34.8241 11.5981 34.8241 11.5452 34.8241C11.2804 34.8241 11.0156 34.876 10.8037 34.876C10.7508 34.876 10.6448 34.876 10.5389 34.876C10.433 34.876 10.38 34.876 10.2741 34.876C10.2212 34.876 10.1682 34.876 10.1152 34.876C10.0623 34.876 10.0093 34.876 9.90343 34.876H9.85045C9.85045 34.876 9.85046 34.876 9.79751 34.876C9.79751 34.876 9.79749 34.876 9.74453 34.876L9.69158 34.9279C9.69158 34.9798 9.74455 34.9797 9.79751 35.0316C9.85046 35.0316 9.85047 35.0316 9.90343 35.0316C10.0623 35.0316 10.2212 35.0317 10.3271 35.0835C10.433 35.1354 10.5389 35.3431 10.5389 35.7582C10.5919 36.1215 10.5919 36.7962 10.5919 37.7304C10.5919 38.5608 10.5919 39.1316 10.5919 39.443C10.5919 39.8063 10.5389 40.0139 10.486 40.1177C10.433 40.2215 10.3801 40.3253 10.2212 40.4291C10.1682 40.4291 10.1682 40.481 10.1152 40.481C10.0093 40.5329 9.85046 40.5329 9.69158 40.5329C9.63862 40.5329 9.58565 40.5848 9.58565 40.6367C9.58565 40.6886 9.63862 40.6886 9.69158 40.6886H9.79751C9.79751 40.6886 9.85047 40.6886 9.90343 40.6886C9.95639 40.6886 9.95636 40.6886 10.0093 40.6886C10.0623 40.6886 10.0623 40.6886 10.1152 40.6886C10.2741 40.6886 10.433 40.6367 10.5919 40.6367C10.6449 40.6367 10.7508 40.6367 10.8567 40.6367C10.9626 40.6367 11.0685 40.6367 11.1744 40.6367C11.2804 40.6367 11.3863 40.6367 11.4392 40.6367C11.4922 40.6367 11.5452 40.6367 11.5452 40.6367C11.5981 40.6367 11.6511 40.6367 11.757 40.6367H11.9159C11.9159 40.6367 11.9159 40.6367 11.9688 40.6367C11.9688 40.6367 11.9688 40.6367 11.9688 40.5848C11.9688 40.5848 11.8629 40.5848 11.81 40.5848C11.757 40.5848 11.757 40.5848 11.704 40.5848H11.5981C11.4392 40.5848 11.3333 40.481 11.2804 40.3253C11.2274 40.1696 11.2274 39.9101 11.2274 39.443V38.5608C11.2274 37.6785 11.2274 37.0557 11.2274 36.6405C11.2274 36.2253 11.2274 35.9139 11.2804 35.6544C11.2804 35.4468 11.3333 35.3431 11.3863 35.2393L11.4392 35.1874C11.4922 35.1355 11.6511 35.0835 11.81 35.0316C11.9688 35.0316 12.0748 34.9798 12.0748 34.9279C12.0748 34.876 12.0218 34.876 11.9688 34.876C12.0218 34.8241 11.9688 34.8241 11.8629 34.8241ZM65.2461 34.8241C65.1931 34.876 65.1931 34.8241 65.2461 34.8241C65.1931 34.876 65.2461 34.9279 65.352 34.9279C65.4579 34.9279 65.5109 34.9798 65.5638 34.9798C65.6698 35.0317 65.7757 35.1354 65.7757 35.2911C65.7757 35.4468 65.8286 35.7063 65.8286 36.0696V37.0038C65.8286 39.0798 65.7757 40.2215 65.6697 40.3772C65.6697 40.3772 65.6168 40.4291 65.5638 40.4291C65.5109 40.4291 65.4579 40.481 65.4049 40.481C65.352 40.481 65.2991 40.481 65.2461 40.5329C65.1931 40.5329 65.1932 40.5848 65.1932 40.6367C65.1932 40.6367 65.1931 40.6886 65.299 40.6886C65.299 40.6886 65.352 40.6886 65.5638 40.6886C65.7757 40.6886 66.0405 40.6886 66.4112 40.6886C66.7819 40.6886 67.1526 40.6367 67.5233 40.6367C68.1059 40.6367 68.7944 40.6367 69.5888 40.6886C69.7476 40.3772 69.8535 40.1177 69.9065 39.9101C69.9595 39.7025 70.0125 39.4949 70.0125 39.443C70.0125 39.3911 70.0125 39.3912 69.9595 39.3912C69.9595 39.3912 69.9065 39.443 69.9065 39.5468C69.8535 39.5987 69.8536 39.7025 69.8006 39.7544C69.6417 40.0139 69.3769 40.2215 69.1121 40.3253C68.7943 40.4291 68.3707 40.481 67.8411 40.481C67.4704 40.481 67.0997 40.481 66.676 40.3772C66.676 40.1696 66.676 39.9101 66.623 39.5987C66.623 39.2874 66.623 38.976 66.623 38.6646V38.0937C66.623 38.0418 66.623 37.9899 66.623 37.938C66.623 37.938 66.676 37.8861 66.7289 37.8861C66.7819 37.8861 66.9408 37.8861 67.1526 37.8861H67.6822C68 37.8861 68.2648 37.8861 68.4766 37.8861C68.6355 37.8861 68.7414 37.938 68.8473 37.9899C68.9532 38.0418 69.0062 38.1456 69.0062 38.2494C69.0062 38.3013 69.0592 38.4051 69.0592 38.5089C69.0592 38.6127 69.0591 38.6646 69.1121 38.6646C69.1651 38.6646 69.1651 38.6127 69.1651 38.5608C69.1651 38.5608 69.1651 38.457 69.1651 38.2494C69.1651 38.0937 69.1651 37.938 69.1651 37.8342C69.1651 37.7304 69.1651 37.5747 69.1651 37.419C69.1651 37.2633 69.1651 37.1595 69.1651 37.1076C69.1651 37.0557 69.1651 37.0557 69.1121 37.0557C69.1121 37.0557 69.0592 37.1076 69.0062 37.2114C69.0062 37.3152 68.9532 37.419 68.8473 37.5228C68.7943 37.5747 68.6355 37.6266 68.4237 37.6266C68.2118 37.6785 67.8941 37.6266 67.4174 37.6266H66.9937C66.8878 37.6266 66.7819 37.6266 66.7289 37.6266C66.676 37.6266 66.623 37.6266 66.623 37.5747C66.623 37.5747 66.623 37.5228 66.623 37.419V37.2633C66.623 36.5367 66.623 35.862 66.676 35.1874C67.0997 35.1355 67.4704 35.1355 67.8941 35.1355C68.2648 35.1355 68.5825 35.1355 68.7944 35.1355C69.0062 35.1355 69.1651 35.1874 69.271 35.2393C69.3769 35.2912 69.4299 35.395 69.4299 35.4987C69.4299 35.5506 69.4299 35.6544 69.4299 35.7063C69.4299 35.7582 69.4299 35.8101 69.4299 35.8101V35.862C69.4299 35.862 69.4828 35.9139 69.5358 35.9139C69.5888 35.9139 69.5887 35.9139 69.6417 35.862C69.6417 35.862 69.6417 35.7063 69.6947 35.4468C69.6947 35.2393 69.7476 35.0317 69.8006 34.876C69.324 34.876 68.8473 34.876 68.5296 34.876C68.2118 34.876 67.7352 34.876 67.2056 34.876C66.676 34.876 66.4112 34.876 66.4641 34.876C66.2523 34.876 65.9875 34.876 65.7757 34.876C65.352 34.8241 65.2461 34.8241 65.2461 34.8241ZM80.1806 34.8241C80.1277 34.8241 80.1277 34.8241 80.1277 34.876C80.1277 34.876 80.1807 34.9279 80.2866 34.9279C80.3396 34.9279 80.4454 34.9798 80.4984 34.9798C80.5514 35.0317 80.6573 35.0836 80.6573 35.1874C80.6573 35.2393 80.6573 35.2392 80.7102 35.2911C80.7632 35.4468 80.7632 35.7063 80.7632 36.0696V37.0038C80.7632 39.0798 80.7103 40.2215 80.6043 40.3772C80.6043 40.3772 80.6044 40.4291 80.5514 40.4291C80.5514 40.4291 80.4984 40.4291 80.4984 40.481C80.4454 40.481 80.3925 40.5329 80.3396 40.5329C80.2866 40.5329 80.2336 40.5329 80.1806 40.5848H80.1277C80.0747 40.5848 80.0748 40.6367 80.0748 40.6886C80.0748 40.6886 80.1277 40.7405 80.1806 40.7405C80.1806 40.7405 80.1806 40.7405 80.2336 40.7405C80.2866 40.7405 80.3395 40.7405 80.4454 40.7405C80.6573 40.7405 80.9751 40.7405 81.3458 40.7405C81.4517 40.7405 81.5047 40.7405 81.6106 40.7405C81.8754 40.7405 82.1931 40.7405 82.4579 40.7405C83.0405 40.7405 83.676 40.7405 84.5234 40.7924C84.6293 40.481 84.7352 40.2215 84.8411 40.0139C84.8941 39.8063 84.8941 39.5987 84.8941 39.5468C84.8941 39.4949 84.8941 39.4949 84.8411 39.4949C84.8411 39.4949 84.7881 39.5468 84.7352 39.6506C84.7352 39.7025 84.6822 39.8063 84.6293 39.8582C84.4704 40.1177 84.2585 40.3253 83.9408 40.4291C83.623 40.5329 83.1994 40.5848 82.6698 40.5848C82.2991 40.5848 81.9283 40.5848 81.5046 40.481C81.5046 40.2734 81.4517 40.0139 81.4517 39.7025C81.4517 39.3911 81.4517 39.0798 81.4517 38.7684V38.1975C81.4517 38.1456 81.4517 38.0937 81.4517 38.0418C81.4517 38.0418 81.5046 37.9899 81.5576 37.9899C81.6105 37.9899 81.7694 37.9899 81.9813 37.9899H82.5109C82.8286 37.9899 83.0934 37.9899 83.2523 37.9899C83.4112 37.9899 83.5701 38.0418 83.623 38.0937C83.676 38.1456 83.7819 38.2494 83.7819 38.3532C83.7819 38.4051 83.8349 38.5089 83.8349 38.6127C83.8349 38.6646 83.8878 38.7165 83.8878 38.7684C83.8878 38.7684 83.9408 38.7684 83.9408 38.7165C83.9408 38.7165 83.9408 38.7165 83.9408 38.6646V38.6127C83.9408 38.6127 83.9408 38.5089 83.9408 38.3013C83.9408 38.1456 83.9408 37.9899 83.9408 37.8861C83.9408 37.7823 83.9408 37.6266 83.9408 37.4709C83.9408 37.3152 83.9408 37.2114 83.9408 37.1595C83.9408 37.1076 83.9408 37.1076 83.8878 37.1076C83.8349 37.1076 83.8349 37.1595 83.7819 37.2633C83.7819 37.3671 83.7289 37.4709 83.623 37.5747C83.5701 37.5747 83.5171 37.6266 83.4642 37.6266C83.4112 37.6266 83.4112 37.6266 83.3582 37.6785C83.3053 37.6785 83.2523 37.6785 83.1994 37.6785C83.1464 37.6785 83.0934 37.6785 82.9875 37.6785C82.7757 37.6785 82.5109 37.6785 82.1402 37.6785H81.7165C81.6106 37.6785 81.5046 37.6785 81.4517 37.6785C81.3987 37.6785 81.3458 37.6785 81.3458 37.6266C81.3458 37.6266 81.3458 37.5747 81.3458 37.4709V37.3152C81.3458 36.5886 81.3458 35.9139 81.3987 35.2393C81.8224 35.1874 82.2461 35.1874 82.6168 35.1874C82.9875 35.1874 83.3053 35.1874 83.5171 35.1874C83.729 35.1874 83.8878 35.2392 83.9938 35.2911C84.0997 35.343 84.1526 35.4468 84.1526 35.5506C84.1526 35.6025 84.1526 35.7063 84.0997 35.7582C84.0997 35.8101 84.0997 35.862 84.0997 35.862V35.9139C84.0997 35.9139 84.0996 35.9658 84.2056 35.9658V35.9139C84.2056 35.9139 84.2586 35.7582 84.2586 35.4987C84.3115 35.2912 84.3115 35.0836 84.3645 34.9279C83.8349 34.9279 83.4112 34.9279 83.0934 34.9279C82.8286 34.9279 82.5109 34.9279 82.1402 34.9279C82.0343 34.9279 81.8754 34.9279 81.7694 34.9279C81.2398 34.9279 80.975 34.9279 80.975 34.9279C80.8691 34.9279 80.7632 34.9279 80.6573 34.9279C80.6043 34.9279 80.5514 34.9279 80.4984 34.9279C80.4454 34.9279 80.3925 34.9279 80.3396 34.9279C80.2866 34.8241 80.1806 34.8241 80.1806 34.8241ZM37.6542 34.8241C37.6013 34.8241 37.6012 34.8241 37.6012 34.876C37.6012 34.876 37.6542 34.9279 37.7601 34.9279C37.8131 34.9279 37.919 34.9798 37.972 34.9798C38.0779 35.0317 38.1309 35.1354 38.1838 35.2911C38.2368 35.3949 38.2368 35.6025 38.2368 35.8101C38.2368 35.862 38.2368 35.9658 38.2368 36.0696V37.0038C38.2368 38.5608 38.1838 39.5987 38.1308 40.0658C38.1308 40.1696 38.1308 40.2215 38.0779 40.2734C38.0779 40.3253 38.0779 40.3772 38.0249 40.3772C38.0249 40.3772 38.0249 40.4291 37.972 40.4291C37.972 40.4291 37.919 40.4291 37.919 40.481C37.8661 40.481 37.8131 40.5329 37.7601 40.5329C37.7071 40.5329 37.7072 40.5329 37.6542 40.5329C37.6013 40.5329 37.6012 40.5329 37.5483 40.5329C37.4953 40.5329 37.4953 40.5329 37.4953 40.5848C37.4953 40.5848 37.4953 40.5848 37.4953 40.6367C37.4953 40.6367 37.4953 40.6886 37.5483 40.6886H37.6012C37.6012 40.6886 37.6013 40.6886 37.6542 40.6886C37.7072 40.6886 37.7601 40.6886 37.866 40.6886C38.0778 40.6886 38.3956 40.6886 38.7134 40.6886C38.8193 40.6886 38.8723 40.6886 38.9782 40.6886C39.243 40.6886 39.5078 40.6886 39.8255 40.6886C40.4081 40.6886 41.0965 40.6886 41.838 40.7405C41.9968 40.4291 42.1028 40.1696 42.1558 39.962C42.2087 39.7544 42.2617 39.5468 42.2617 39.4949C42.2617 39.443 42.2617 39.443 42.2087 39.443C42.2087 39.443 42.1557 39.4949 42.1028 39.5987C42.1028 39.6506 42.0498 39.7544 41.9969 39.8063C41.838 40.0658 41.6261 40.2734 41.3084 40.3772C41.0436 40.481 40.6199 40.5329 40.0903 40.5329C39.7196 40.5329 39.3489 40.5329 38.8722 40.4291C38.8722 40.2215 38.8722 39.962 38.8722 39.6506C38.8722 39.3393 38.8722 39.0279 38.8722 38.7165V38.1456C38.8722 38.0937 38.8722 38.0418 38.8722 37.9899C38.8722 37.9899 38.9252 37.938 38.9782 37.938C39.0312 37.938 39.19 37.938 39.4018 37.938H39.9314C40.2492 37.938 40.514 37.938 40.6729 37.938C40.7258 37.938 40.7788 37.938 40.7788 37.938C40.8317 37.938 40.8318 37.938 40.8847 37.938C40.9377 37.938 40.9906 37.9899 41.0436 37.9899C41.0965 38.0418 41.1495 38.1456 41.2025 38.2494C41.2025 38.3013 41.2025 38.4051 41.2554 38.5089C41.2554 38.5608 41.3084 38.6127 41.3084 38.6646C41.3084 38.6646 41.3614 38.6646 41.3614 38.6127C41.3614 38.6127 41.3614 38.6127 41.3614 38.5608V38.5089C41.3614 38.5089 41.3614 38.4051 41.3614 38.1975C41.3614 38.0418 41.3614 37.8861 41.3614 37.7823C41.3614 37.6785 41.3614 37.5228 41.3614 37.3671C41.3614 37.2114 41.3614 37.1076 41.3614 37.0557C41.3614 37.0038 41.3613 37.0038 41.3084 37.0038C41.2554 37.0038 41.2554 37.0557 41.2025 37.1595C41.2025 37.2633 41.1495 37.3671 41.0436 37.4709C40.9906 37.4709 40.9377 37.5228 40.8847 37.5228C40.8318 37.5228 40.8317 37.5228 40.7788 37.5747C40.7258 37.5747 40.6729 37.5747 40.6199 37.5747C40.567 37.5747 40.514 37.5747 40.4081 37.5747C40.1962 37.5747 39.9315 37.5747 39.5607 37.5747H39.137C39.0311 37.5747 38.9252 37.5747 38.8722 37.5747C38.8193 37.5747 38.7664 37.5747 38.7664 37.5228C38.7664 37.5228 38.7664 37.4709 38.7664 37.3671V37.2114C38.7664 36.4848 38.7663 35.8101 38.8193 35.1355C39.243 35.0836 39.6137 35.0835 40.0374 35.0835C40.4081 35.0835 40.7258 35.0835 40.9377 35.0835C41.1495 35.0835 41.3084 35.1355 41.4143 35.1874C41.5202 35.2393 41.5732 35.343 41.5732 35.4468C41.5732 35.4987 41.5732 35.6025 41.5732 35.6544C41.5732 35.7063 41.5732 35.7582 41.5732 35.7582V35.8101C41.5732 35.8101 41.5732 35.862 41.6262 35.862H41.6791V35.8101C41.6791 35.8101 41.7321 35.6544 41.785 35.3949C41.785 35.1873 41.838 34.9798 41.891 34.8241C41.3614 34.8241 40.9377 34.8241 40.6199 34.8241C40.3551 34.8241 40.0374 34.8241 39.6666 34.8241C39.5607 34.8241 39.4019 34.8241 39.2959 34.8241C38.7664 34.8241 38.5016 34.8241 38.5016 34.8241C38.3956 34.8241 38.2897 34.8241 38.1838 34.8241C38.1309 34.8241 38.0779 34.8241 38.0249 34.8241C37.9719 34.8241 37.919 34.8241 37.866 34.8241C37.7601 34.8241 37.7072 34.8241 37.6542 34.8241C37.7072 34.8241 37.7072 34.8241 37.6542 34.8241ZM46.3925 34.9279C46.4455 34.9279 46.4984 34.9279 46.5514 34.9279C46.6043 34.9279 46.6573 34.9279 46.7103 34.9279C46.8692 34.9279 46.975 34.9798 47.1339 35.0835C47.2398 35.1354 47.2928 35.1874 47.3987 35.2393L47.4517 35.2911C47.5047 35.343 47.5047 35.343 47.5576 35.3949C47.7695 35.6544 47.8754 35.9658 47.8754 36.381C47.8754 36.7443 47.7165 37.0557 47.4517 37.2633C47.2399 37.419 47.028 37.5228 46.7103 37.5747H46.6573C46.6044 37.5747 46.5514 37.5747 46.4984 37.5747C46.4455 37.5747 46.3925 37.5747 46.3395 37.5747C46.1277 37.5747 45.8629 37.5747 45.5981 37.4709C45.5981 36.0696 45.5981 35.2911 45.6511 35.1355C45.6511 35.0836 45.704 34.9798 45.8099 34.9798C45.8099 34.9798 45.8629 34.9279 45.9159 34.9279C46.0218 34.9798 46.1807 34.9279 46.3925 34.9279ZM74.4081 34.9798C74.8317 34.9798 75.2554 35.0317 75.6261 35.1874C75.9969 35.2911 76.2616 35.4987 76.5264 35.7582C76.7912 35.9658 76.9502 36.2772 77.109 36.6405C77.215 37.0038 77.2679 37.3671 77.2679 37.7823C77.2679 38.1975 77.215 38.5608 77.109 38.9241C77.0031 39.2354 76.8442 39.5468 76.5794 39.8063C76.3676 40.0658 76.1028 40.2215 75.785 40.3772C75.6262 40.4291 75.4143 40.481 75.2024 40.5329C75.1495 40.5329 75.1495 40.5329 75.0965 40.5329C74.9906 40.5329 74.9377 40.5329 74.8317 40.5848C74.7788 40.5848 74.7258 40.5848 74.6729 40.5848C74.5669 40.5848 74.514 40.5848 74.4081 40.5848C74.1433 40.5848 73.9315 40.5329 73.7196 40.481C73.4548 40.4291 73.3489 40.3253 73.2959 40.2215C73.2959 40.2215 73.243 40.1177 73.243 40.0658C73.243 40.0139 73.243 39.962 73.243 39.9101C73.19 39.5468 73.19 38.976 73.19 38.0937C73.19 37.2114 73.19 36.5367 73.19 36.0696C73.19 35.6025 73.243 35.343 73.243 35.2911C73.2959 35.2392 73.4018 35.1873 73.6137 35.1355C73.6666 35.1355 73.7196 35.1354 73.7726 35.0835C73.9844 35.0317 74.1962 34.9798 74.4081 34.9798ZM89.8193 35.0316C89.9252 35.0316 89.9782 35.0316 90.0841 35.0316C90.3489 35.0835 90.5607 35.1355 90.8255 35.2393C91.1432 35.395 91.4081 35.6025 91.6729 35.9139C91.8847 36.1734 92.0966 36.5367 92.2554 36.9C92.3614 37.2633 92.4673 37.6785 92.4673 38.0937C92.4673 38.5608 92.3614 38.976 92.2025 39.2873C92.0436 39.5987 91.8317 39.8582 91.5669 40.0658C91.514 40.1177 91.461 40.1177 91.461 40.1696C91.1963 40.3253 90.9315 40.3772 90.6137 40.4291C90.5607 40.4291 90.5078 40.4291 90.4548 40.4291C90.4018 40.4291 90.3489 40.4291 90.2959 40.4291C90.137 40.4291 90.0311 40.4291 89.8723 40.4291C89.8193 40.4291 89.7663 40.4291 89.7134 40.3772C89.6074 40.3772 89.5545 40.3253 89.4486 40.3253C89.1838 40.2734 88.9719 40.1177 88.7071 39.962C88.4953 39.8063 88.2834 39.5987 88.1246 39.3912C87.9127 39.1317 87.7538 38.8203 87.6479 38.457C87.542 38.0937 87.4891 37.7304 87.4891 37.419C87.4891 37.1076 87.542 36.7443 87.6479 36.4848C87.7538 36.2253 87.9127 35.9658 88.1246 35.7582C88.3364 35.5506 88.5483 35.3949 88.866 35.2911C89.1838 35.0835 89.5016 35.0316 89.8193 35.0316Z" fill="#7D8A99"/>
<path d="M50.7881 9.49748H51.1059C51.4766 9.49748 51.8473 9.44558 52.0062 9.28989C52.1651 9.13419 52.4299 8.77089 52.4299 8.4076C52.4299 8.09621 52.2181 7.78482 52.0062 7.62912C51.8473 7.52532 51.5296 7.42153 51.0529 7.42153H50.7352V9.49748H50.7881ZM50.7881 24.2886V23.0431C51.3177 23.1468 51.9533 23.1468 52.5358 23.1468C58.6791 23.1468 63.7103 18.2165 63.7103 12.1962C63.7103 6.17595 58.6791 1.24558 52.5358 1.24558C51.9533 1.24558 51.3177 1.29747 50.7881 1.34937V0.103804C51.3177 0.0519051 51.9533 0 52.5358 0C59.3676 0 64.9284 5.44937 64.9284 12.1962C64.9284 18.8911 59.3676 24.3924 52.5358 24.3924C51.9003 24.3924 51.3177 24.3405 50.7881 24.2886ZM50.7881 21.7456V10.7949L52.271 12.8709C52.1121 13.1304 51.9532 13.3899 51.8473 13.6494C51.6884 14.0127 51.6355 14.5317 51.6355 14.9987C51.6355 15.5177 51.6884 15.9848 51.8473 16.4C52.0062 16.8152 52.271 17.2304 52.6417 17.5418C52.9595 17.8532 53.3832 18.1127 53.8069 18.3203C54.2305 18.476 54.7071 18.5279 55.2897 18.5279C56.4018 18.5279 57.1433 18.2165 57.8318 17.5418C58.4673 16.919 58.891 16.0367 58.891 14.8949C58.891 14.7911 58.891 14.7392 58.891 14.6354H55.6074V15.881H57.1962C57.1433 16.2443 56.8255 16.5557 56.5078 16.8152C56.19 17.0228 55.7663 17.2304 55.2897 17.2304C54.7071 17.2304 54.1776 17.1266 53.9128 16.7633C53.595 16.4 53.1184 15.7772 53.1184 15.1544C53.1184 14.5317 53.3831 13.9608 53.7009 13.5975C53.9657 13.2861 54.4953 12.8709 55.0249 12.8709C55.2897 12.8709 55.9252 12.8709 56.137 13.0266C56.3489 13.1304 56.7725 13.3899 56.9314 13.5975L57.9906 12.5076C57.7258 12.2481 57.4081 11.9886 57.0903 11.8848C56.5607 11.6253 55.9252 11.4696 55.2897 11.4696C54.7601 11.4696 54.2835 11.5215 53.8598 11.7291C53.7539 11.781 53.595 11.8329 53.5421 11.8848L52.5358 10.5874C52.9595 10.3798 53.3302 10.0684 53.595 9.70507C53.8598 9.39368 53.9657 8.92659 53.9657 8.4076C53.9657 8.09621 53.9127 7.73292 53.7538 7.47343C53.595 7.16204 53.3302 6.95443 53.0654 6.74684C52.8536 6.59114 52.1121 6.33165 51.7944 6.22785C51.6355 6.22785 51.2648 6.22785 50.7881 6.22785V2.69874C51.3177 2.59494 51.9533 2.54305 52.5358 2.54305C57.9377 2.54305 62.3863 6.90253 62.3863 12.2481C62.3863 17.5937 57.9377 21.9532 52.5358 21.9532C51.9003 21.9013 51.3177 21.8494 50.7881 21.7456ZM49.0935 9.49748H50.7881V7.42153H49.0935V9.49748ZM50.7881 0.103804V1.34937C45.4392 2.17975 41.3084 6.74684 41.3084 12.1962C41.3084 17.6456 45.3863 22.2127 50.7881 23.0431V24.2886C44.6978 23.4582 40.0374 18.3722 40.0374 12.1962C40.0374 6.07215 44.6978 0.934184 50.7881 0.103804ZM50.7881 2.64684V6.17596C50.4174 6.17596 49.9408 6.17596 49.5701 6.17596H47.5576V13.1823H49.0405V10.743H50.6822V21.6937C46.0218 20.8633 42.5265 16.919 42.5265 12.1443C42.5794 7.47343 46.1277 3.47722 50.7881 2.64684Z" fill="#7D8A99"/>
</svg>
