<svg width="72" height="21" viewBox="0 0 72 21" fill="none" xmlns="http://www.w3.org/2000/svg">
<path fill-rule="evenodd" clip-rule="evenodd" d="M5.50581 17.3478H14.262C14.3682 17.3478 14.3682 17.4015 14.262 17.4552C13.3068 17.9386 11.874 19.3887 11.874 19.3887C10.9187 20.3555 10.1227 21 8.42454 21H0.039801C-0.013267 21 -0.013267 20.8926 0.039801 20.8926C0.941957 20.3555 2.32173 18.9054 2.32173 18.9054C2.90547 18.2072 4.07297 17.3478 5.50581 17.3478Z" fill="#7D8A99"/>
<path fill-rule="evenodd" clip-rule="evenodd" d="M63.1376 17.3478H71.9469C72 17.3478 72 17.4015 71.9469 17.4552C70.9386 17.9386 69.5589 19.3887 69.5589 19.3887C68.5506 20.3555 67.7546 21 66.1095 21H57.7247C57.6716 21 57.6716 20.8926 57.7247 20.8926C58.6269 20.3555 60.0066 18.9054 60.0066 18.9054C60.5904 18.2072 61.7048 17.3478 63.1376 17.3478Z" fill="#7D8A99"/>
<path fill-rule="evenodd" clip-rule="evenodd" d="M19.9403 17.3478H28.6965C28.8027 17.3478 28.8027 17.4015 28.6965 17.4552C27.7413 17.9386 26.3085 19.3887 26.3085 19.3887C25.3532 20.3555 24.5572 21 22.859 21H14.4743C14.3682 21 14.3682 20.8926 14.4212 20.8926C15.3234 20.3555 16.7031 18.9054 16.7031 18.9054C17.2869 18.2072 18.5075 17.3478 19.9403 17.3478Z" fill="#7D8A99"/>
<path fill-rule="evenodd" clip-rule="evenodd" d="M34.3217 17.3478H43.0779C43.1841 17.3478 43.1841 17.4015 43.0779 17.4552C42.1227 17.9386 40.6899 19.3887 40.6899 19.3887C39.7347 20.3555 38.9386 21 37.2935 21H28.9088C28.8557 21 28.8557 20.8926 28.8557 20.8926C29.8109 20.3555 31.1376 18.9054 31.1376 18.9054C31.7214 18.2072 32.8889 17.3478 34.3217 17.3478Z" fill="#7D8A99"/>
<path fill-rule="evenodd" clip-rule="evenodd" d="M48.7562 17.3478H57.5655C57.6186 17.3478 57.6186 17.4015 57.5124 17.4552C56.5572 17.9386 55.1244 19.3887 55.1244 19.3887C54.1692 20.3555 53.3731 21 51.728 21H43.2902C43.2372 21 43.2372 20.8926 43.2902 20.8926C44.1924 20.3555 45.5721 18.9054 45.5721 18.9054C46.1559 18.2072 47.3234 17.3478 48.7562 17.3478Z" fill="#7D8A99"/>
<path fill-rule="evenodd" clip-rule="evenodd" d="M51.1443 0C45.6252 0 41.9104 2.90026 41.9104 7.30435C41.9104 11.3325 45.3068 14.0716 50.2952 14.0716C51.9403 14.0716 53.3731 13.8568 55.0713 13.3734V9.98977C53.9038 11.3325 52.471 11.8696 50.932 11.8696C47.9602 11.8696 45.8906 9.88235 45.8906 6.9821C45.8906 4.13555 48.0133 2.04093 50.9851 2.04093C52.5771 2.04093 53.8507 2.68542 54.859 3.75959V0.322254C53.8507 0.161129 52.471 0 51.1443 0Z" fill="#7D8A99"/>
<path fill-rule="evenodd" clip-rule="evenodd" d="M9.80431 2.36317C11.874 2.36317 14.3151 2.79285 15.3234 3.65218V0.429677H0.782753V3.65218C1.79104 2.79285 4.0199 2.41688 6.35489 2.41688V11.2251C6.35489 12.5141 6.24876 12.89 5.71808 13.5345H10.3881C9.85738 12.8363 9.75124 12.5141 9.75124 11.2251V2.36317H9.80431Z" fill="#7D8A99"/>
<path fill-rule="evenodd" clip-rule="evenodd" d="M24.7164 5.53198C23.9204 5.85423 22.3814 5.90793 21.5854 5.90793H20.3648V2.41688H22.01C23.4959 2.41688 25.99 2.73914 26.9983 3.59847V0.429677H16.3847C16.9154 1.07418 17.0216 1.45013 17.0216 2.73913V11.2251C17.0216 12.5141 16.9154 12.89 16.4378 13.5345H27.6882V10.312C26.1493 11.4936 23.1774 11.4936 22.01 11.4936H20.3648V7.78772H21.5323C22.3284 7.78772 23.8143 7.89515 24.7164 8.2174V5.53198Z" fill="#7D8A99"/>
<path fill-rule="evenodd" clip-rule="evenodd" d="M40.4245 0.859338C38.7264 0.268545 36.5506 0 34.8524 0C31.7745 0 28.8027 0.966752 28.8027 4.29667C28.8027 9.98977 38.0365 6.9821 38.0365 10.5269C38.0365 11.6547 36.3914 12.1381 35.0647 12.1381C32.7297 12.1381 31.0846 11.7084 29.0149 10.3657V13.266C30.5539 13.8031 32.6766 14.0716 34.9055 14.0716C38.0896 14.0716 41.0614 13.1586 41.0614 9.77494C41.0614 3.7596 31.8806 6.44502 31.8806 3.54476C31.8806 2.36317 33.3665 1.93351 34.6401 1.93351C36.8159 1.93351 39.1509 2.63172 40.4245 3.92073V0.859338Z" fill="#7D8A99"/>
<path fill-rule="evenodd" clip-rule="evenodd" d="M64.1459 0.21483C59.1575 0.21483 55.6551 3.11509 55.6551 7.19693C55.6551 11.2251 58.8391 13.9105 63.5091 13.9105C68.5506 13.9105 72 11.1176 72 6.92838C72 2.90025 68.8159 0.21483 64.1459 0.21483ZM63.7745 11.9233C61.1211 11.9233 59.4229 9.72123 59.4229 7.03581C59.4229 4.35039 61.1211 2.14834 63.7745 2.14834C66.3748 2.14834 68.126 4.35039 68.126 7.03581C68.126 9.77494 66.3748 11.9233 63.7745 11.9233Z" fill="#7D8A99"/>
</svg>
