<svg width="52" height="41" viewBox="0 0 52 41" fill="none" xmlns="http://www.w3.org/2000/svg">
<path fill-rule="evenodd" clip-rule="evenodd" d="M0 28.7596H2.12679V35.0282C2.12679 37.1001 3.34967 38.375 4.99794 38.375C6.6462 38.375 7.86911 37.1532 7.86911 35.0282V28.7596H9.9959V35.5063C9.9959 38.1094 8.02861 40.3938 4.99794 40.3938C1.96726 40.3938 0 38.1625 0 35.5063V28.7596Z" fill="#7D8A99"/>
<path fill-rule="evenodd" clip-rule="evenodd" d="M21.8528 40.1281V28.7596H19.7792V35.8782L13.5583 28.7596H12.3885V40.1281H14.5153V33.0626L20.683 40.1281H21.8528Z" fill="#7D8A99"/>
<path fill-rule="evenodd" clip-rule="evenodd" d="M24.4049 28.7596H26.5849V40.1281H24.4049V28.7596Z" fill="#7D8A99"/>
<path fill-rule="evenodd" clip-rule="evenodd" d="M34.5603 28.3877C31.2106 28.3877 28.4458 31.097 28.4458 34.4439C28.4458 37.7907 31.1575 40.5 34.5603 40.5C35.8364 40.5 37.0061 40.1281 38.0164 39.4375L39.0266 40.4469L40.409 39.0657L39.452 38.1094C40.1963 37.1001 40.6749 35.8251 40.6749 34.497C40.6217 31.097 37.91 28.3877 34.5603 28.3877ZM34.5603 30.3002C36.7403 30.3002 38.4949 32.1595 38.4949 34.4439C38.4949 35.2407 38.2822 35.9313 37.91 36.5688L36.5808 35.2407L35.1984 36.6219L36.5276 37.95C35.9427 38.3219 35.2515 38.5344 34.5071 38.5344C32.3272 38.5344 30.5726 36.6751 30.5726 34.3907C30.5726 32.1064 32.3804 30.3002 34.5603 30.3002Z" fill="#7D8A99"/>
<path fill-rule="evenodd" clip-rule="evenodd" d="M45.6728 28.7596L40.728 40.075H43.0143L43.9182 37.95H48.8098L49.6605 40.075H52L47.1616 28.7596H45.6728ZM44.6626 36.0907L46.3108 32.0533L46.364 32.0002L48.0123 36.0907H44.6626Z" fill="#7D8A99"/>
<path fill-rule="evenodd" clip-rule="evenodd" d="M22.2249 20.1004C20.4703 18.8254 19.2474 17.3911 18.3436 16.0098C15.6851 11.9724 16.0573 7.88186 17.2802 5.86315C17.3333 5.81002 18.3967 4.69442 19.8323 3.89756C21.0552 3.15382 22.2781 2.83508 23.3947 2.67571C21.9591 3.20695 20.683 4.53505 20.0982 5.65065C20.0982 5.65065 19.3006 7.03188 19.3538 9.20996C19.4601 10.9099 20.2577 12.8755 21.0552 14.0974C23.0757 17.1786 25.681 18.5598 28.2863 19.1973C29.5092 19.516 31.4233 19.6754 33.9223 19.7816C35.9427 19.8879 39.9836 19.941 40.728 19.941H41.4724L43.227 23.2878C43.227 23.2878 37.272 23.2878 34.5603 23.1816C30.0409 23.0222 25.8937 22.8097 22.2249 20.1004Z" fill="#7D8A99"/>
<path fill-rule="evenodd" clip-rule="evenodd" d="M25.5746 22.8097C24.6176 23.0753 23.6605 23.1816 22.8098 23.1816C20.3108 23.1816 17.9182 22.0128 16.0041 20.4722C13.6646 18.666 11.9632 16.1692 11.5378 13.4599C11.4847 13.1411 11.4315 12.8224 11.3783 12.3974C11.2188 10.5381 11.4847 8.2006 12.8139 5.91627C13.9305 3.95068 15.6319 2.30384 18.4499 1.13511C19.6196 0.656996 22.1186 0.125756 24.9898 0.869492C28.0205 1.71948 30.6789 3.57882 32.3804 6.07564C32.3804 6.07564 29.775 2.67571 25.3088 2.30384C25.0961 2.30384 24.8834 2.30384 24.7239 2.30384C22.4908 2.25072 20.364 3.04758 18.6094 4.26943C17.4929 5.06629 16.4826 6.07564 15.7382 7.24437C15.5787 7.50999 13.9305 9.90057 13.8773 13.4068C13.8241 16.4348 15.2066 18.6129 15.6851 19.3566C15.6851 19.3566 16.9612 20.2066 18.8753 20.5785C20.2045 20.8441 21.7464 20.7379 22.0123 20.6316C22.0123 20.6316 22.8098 21.216 23.82 21.8004C25.0961 22.491 26.2658 22.8097 26.2658 22.8097H25.5746Z" fill="#7D8A99"/>
<path fill-rule="evenodd" clip-rule="evenodd" d="M19.7792 23.1285H5.21063L6.69937 20.5254H15.2597C15.7914 20.9504 16.5358 21.4816 17.3333 21.9597C18.1309 22.491 19.0348 22.916 19.7792 23.1285Z" fill="#7D8A99"/>
<path fill-rule="evenodd" clip-rule="evenodd" d="M34.0818 11.9193C34.2945 14.8411 32.3804 18.0817 31.4233 19.3035C30.8384 19.2504 29.8814 19.1441 28.9775 18.9848C28.1268 18.8254 27.2761 18.5067 27.1166 18.4535C28.2863 17.4973 29.9877 15.5848 30.7853 12.8755C32.0082 8.78497 30.4663 5.49128 28.818 3.84444C32.5931 5.9694 33.9754 9.15684 34.0818 11.9193Z" fill="#7D8A99"/>
</svg>
